<svg width="37" height="37" viewBox="0 0 37 37" fill="none" xmlns="http://www.w3.org/2000/svg">
<path d="M0.921875 18.8399C0.921875 8.94298 8.94493 0.919922 18.8419 0.919922C28.7388 0.919922 36.7619 8.94298 36.7619 18.8399C36.7619 28.7369 28.7388 36.7599 18.8419 36.7599C8.94493 36.7599 0.921875 28.7369 0.921875 18.8399Z" fill="#05D678" fill-opacity="0.15"/>
<path d="M9.57189 6.52389C9.68368 6.52476 9.79548 6.52562 9.91066 6.52652C10.2788 6.52994 10.6468 6.53649 11.0148 6.54319C11.2709 6.54646 11.527 6.54956 11.7831 6.55253C12.319 6.5592 12.8548 6.56736 13.3907 6.57664C14.0785 6.58847 14.7663 6.59713 15.4542 6.60475C15.9826 6.61086 16.5109 6.61838 17.0393 6.62634C17.293 6.63005 17.5467 6.63338 17.8005 6.63634C18.1542 6.64072 18.5079 6.64692 18.8617 6.65364C19.0198 6.6551 19.0198 6.6551 19.181 6.6566C19.9056 6.67318 19.9056 6.67318 20.222 6.98955C20.2542 7.41269 20.2542 7.41269 20.2497 7.94881C20.2493 8.04293 20.2489 8.13704 20.2485 8.23401C20.2469 8.53487 20.2434 8.83567 20.2397 9.13651C20.2383 9.34037 20.237 9.54424 20.2359 9.7481C20.2327 10.2481 20.2278 10.748 20.222 11.248C20.472 11.2381 20.472 11.2381 20.7271 11.228C23.9592 11.138 27.0452 12.0779 29.6199 14.1041C29.8778 14.3744 29.9948 14.5416 30.0785 14.9031C30.0164 15.3644 30.0164 15.3644 29.8035 15.7193C29.4151 15.9523 29.1865 15.9968 28.7422 15.904C28.2564 15.7117 27.868 15.3849 27.4497 15.0767C25.2465 13.5872 22.8261 13.174 20.222 13.0933C20.222 14.2644 20.222 15.4354 20.222 16.642C20.8149 16.6244 20.8149 16.6244 21.4197 16.6065C24.3635 16.5878 27.2987 17.6714 29.6199 19.4981C29.8778 19.7684 29.9948 19.9356 30.0785 20.2971C30.0164 20.7585 30.0164 20.7585 29.8035 21.1133C29.4151 21.3463 29.1865 21.3908 28.7422 21.298C28.2564 21.1057 27.868 20.7789 27.4497 20.4707C25.2465 18.9812 22.8261 18.568 20.222 18.4873C20.222 19.6584 20.222 20.8294 20.222 22.036C20.8149 22.0184 20.8149 22.0184 21.4197 22.0005C24.3635 21.9818 27.2987 23.0654 29.6199 24.8921C29.8778 25.1624 29.9948 25.3296 30.0785 25.6911C30.0164 26.1525 30.0164 26.1525 29.8035 26.5073C29.4151 26.7403 29.1865 26.7848 28.7422 26.692C28.2564 26.4997 27.868 26.1729 27.4497 25.8647C25.6581 24.6535 23.5782 24.03 21.4313 23.9379C21.3144 23.9321 21.1974 23.9264 21.077 23.9205C20.792 23.9066 20.507 23.8939 20.222 23.8813C20.2226 23.9678 20.2233 24.0543 20.2239 24.1434C20.2302 25.0414 20.2345 25.9394 20.2376 26.8374C20.239 27.1728 20.241 27.5082 20.2434 27.8436C20.2469 28.3249 20.2485 28.8062 20.2497 29.2875C20.2512 29.4382 20.2527 29.5888 20.2542 29.7441C20.2542 29.8833 20.2542 30.0226 20.2542 30.166C20.2549 30.2889 20.2555 30.4119 20.2561 30.5385C20.222 30.8367 20.222 30.8367 19.9381 31.1206C19.5592 31.1488 19.1949 31.1593 18.8158 31.1573C18.642 31.1581 18.642 31.1581 18.4647 31.1589C18.0805 31.1601 17.6963 31.1593 17.3121 31.1583C17.0458 31.1585 16.7796 31.1588 16.5133 31.1591C15.9549 31.1596 15.3964 31.1589 14.838 31.1576C14.121 31.156 13.404 31.1569 12.6871 31.1586C12.1371 31.1597 11.5872 31.1593 11.0373 31.1586C10.7729 31.1584 10.5085 31.1586 10.2441 31.1593C9.87496 31.16 9.5059 31.1589 9.1368 31.1573C9.02677 31.1579 8.91674 31.1585 8.80338 31.1591C8.04697 31.153 8.04697 31.153 7.73063 30.8367C7.69372 30.4305 7.69372 30.4305 7.69172 29.9001C7.69097 29.8028 7.69023 29.7055 7.68946 29.6052C7.68733 29.2775 7.68723 28.9498 7.68714 28.6221C7.68606 28.3879 7.68486 28.1536 7.68356 27.9193C7.68044 27.2817 7.67919 26.6441 7.67847 26.0065C7.67796 25.6085 7.67707 25.2105 7.67606 24.8125C7.67258 23.4251 7.67073 22.0376 7.67023 20.6501C7.66971 19.3551 7.66547 18.0602 7.65952 16.7653C7.65461 15.6548 7.65241 14.5443 7.65231 13.4337C7.65219 12.7699 7.65094 12.1061 7.64691 11.4423C7.64321 10.8181 7.64288 10.1941 7.64516 9.5699C7.64542 9.34049 7.64446 9.11108 7.64221 8.88168C7.63932 8.56907 7.64079 8.25678 7.64337 7.94418C7.64309 7.76909 7.6428 7.59399 7.64251 7.41359C7.73063 6.98955 7.73063 6.98955 8.05846 6.71995C8.56678 6.512 9.03226 6.51144 9.57189 6.52389ZM9.434 8.40903C9.434 9.90799 9.434 11.407 9.434 12.9513C10.6618 12.8636 11.7683 12.7771 12.9516 12.5211C13.0854 12.4932 13.2192 12.4654 13.3571 12.4368C13.7767 12.3493 14.1959 12.26 14.6151 12.1706C15.0384 12.0817 15.4618 11.993 15.8852 11.9045C16.1466 11.8497 16.4079 11.7946 16.6692 11.7391C16.7877 11.714 16.9063 11.6889 17.0285 11.663C17.1831 11.6301 17.1831 11.6301 17.3408 11.5965C17.7318 11.519 18.1255 11.4555 18.5186 11.3899C18.5186 10.4062 18.5186 9.42253 18.5186 8.40903C15.5207 8.40903 12.5228 8.40903 9.434 8.40903ZM17.5247 13.348C17.4108 13.3727 17.2968 13.3973 17.1795 13.4227C17.0562 13.4498 16.9329 13.4768 16.8058 13.5047C16.5407 13.5617 16.2756 13.6186 16.0104 13.6755C15.5956 13.765 15.1808 13.8548 14.7662 13.9455C12.9889 14.3337 11.2462 14.6271 9.434 14.7967C9.434 15.9677 9.434 17.1388 9.434 18.3453C11.2089 18.2759 12.8823 17.9341 14.6151 17.5646C15.0384 17.4757 15.4618 17.387 15.8852 17.2985C16.1466 17.2437 16.4079 17.1886 16.6692 17.1331C16.7877 17.108 16.9063 17.0829 17.0285 17.057C17.1831 17.0241 17.1831 17.0241 17.3408 16.9905C17.7318 16.913 18.1255 16.8495 18.5186 16.7839C18.5186 15.6129 18.5186 14.4418 18.5186 13.2352C18.1527 13.2352 17.8779 13.2707 17.5247 13.348ZM17.5247 18.742C17.4108 18.7667 17.2968 18.7913 17.1795 18.8167C17.0562 18.8438 16.9329 18.8708 16.8058 18.8987C16.5407 18.9557 16.2756 19.0126 16.0104 19.0695C15.5956 19.159 15.1808 19.2488 14.7662 19.3395C12.9889 19.7277 11.2462 20.0211 9.434 20.1907C9.434 21.3617 9.434 22.5328 9.434 23.7393C11.2089 23.6699 12.8823 23.3281 14.6151 22.9586C15.0384 22.8697 15.4618 22.781 15.8852 22.6925C16.1466 22.6377 16.4079 22.5826 16.6692 22.5271C16.7877 22.502 16.9063 22.4769 17.0285 22.451C17.1831 22.4181 17.1831 22.4181 17.3408 22.3845C17.7318 22.307 18.1255 22.2435 18.5186 22.1779C18.5186 21.0069 18.5186 19.8358 18.5186 18.6292C18.1527 18.6292 17.8779 18.6647 17.5247 18.742ZM17.5247 24.136C17.4108 24.1607 17.2968 24.1853 17.1795 24.2107C17.0562 24.2378 16.9329 24.2648 16.8058 24.2927C16.5407 24.3497 16.2756 24.4066 16.0104 24.4635C15.5956 24.553 15.1808 24.6428 14.7662 24.7335C12.9889 25.1217 11.2462 25.4151 9.434 25.5847C9.434 26.8494 9.434 28.1142 9.434 29.4172C12.4319 29.4172 15.4299 29.4172 18.5186 29.4172C18.5186 27.6372 18.5186 25.8572 18.5186 24.0232C18.1527 24.0232 17.8779 24.0587 17.5247 24.136Z" fill="#CACACA"/>
</svg>
