<svg width="37" height="37" viewBox="0 0 37 37" fill="none" xmlns="http://www.w3.org/2000/svg">
<path d="M0.921875 18.4395C0.921875 8.54259 8.94493 0.519531 18.8419 0.519531C28.7388 0.519531 36.7619 8.54259 36.7619 18.4395C36.7619 28.3365 28.7388 36.3595 18.8419 36.3595C8.94493 36.3595 0.921875 28.3365 0.921875 18.4395Z" fill="#0F6839"/>
<path d="M13.1558 19.548C12.5209 19.2477 11.8141 19.0921 11.0953 19.0921C5.48905 19.459 5.48905 27.0314 11.0953 27.3984H24.3803C25.9976 27.4095 27.5549 26.8535 28.7408 25.8416C32.682 22.6503 30.5736 16.2344 25.3866 15.6228C23.5178 5.20379 7.3099 9.16234 11.1552 19.0921" stroke="#CACACA" stroke-width="1.49333" stroke-miterlimit="10" stroke-linecap="round" stroke-linejoin="round"/>
<path d="M23.4375 16.1102C24.0604 15.8211 24.7432 15.6654 25.438 15.6543" stroke="#CACACA" stroke-width="1.49333" stroke-miterlimit="10" stroke-linecap="round" stroke-linejoin="round"/>
<path d="M14.9387 19.8962C14.9387 19.4731 15.0234 19.1023 15.1926 18.7837C15.3668 18.4601 15.6058 18.2113 15.9094 18.037C16.2131 17.8628 16.5615 17.7757 16.9547 17.7757C17.4525 17.7757 17.8632 17.8952 18.1867 18.1341C18.5153 18.3681 18.7368 18.7041 18.8513 19.1421H17.9329C17.8582 18.938 17.7387 18.7787 17.5745 18.6642C17.4102 18.5497 17.2036 18.4925 16.9547 18.4925C16.6063 18.4925 16.3275 18.6169 16.1185 18.8658C15.9144 19.1097 15.8123 19.4532 15.8123 19.8962C15.8123 20.3393 15.9144 20.6852 16.1185 20.9341C16.3275 21.183 16.6063 21.3074 16.9547 21.3074C17.4475 21.3074 17.7736 21.0909 17.9329 20.6578H18.8513C18.7318 21.076 18.5078 21.4095 18.1793 21.6584C17.8507 21.9023 17.4426 22.0242 16.9547 22.0242C16.5615 22.0242 16.2131 21.9371 15.9094 21.7629C15.6058 21.5837 15.3668 21.3348 15.1926 21.0162C15.0234 20.6927 14.9387 20.3193 14.9387 19.8962ZM21.4841 22.0242C21.0958 22.0242 20.7449 21.9371 20.4313 21.7629C20.1177 21.5837 19.8713 21.3348 19.6921 21.0162C19.5129 20.6927 19.4233 20.3193 19.4233 19.8962C19.4233 19.4781 19.5154 19.1073 19.6996 18.7837C19.8837 18.4601 20.1351 18.2113 20.4537 18.037C20.7723 17.8628 21.1282 17.7757 21.5214 17.7757C21.9147 17.7757 22.2706 17.8628 22.5892 18.037C22.9077 18.2113 23.1591 18.4601 23.3433 18.7837C23.5275 19.1073 23.6196 19.4781 23.6196 19.8962C23.6196 20.3144 23.525 20.6852 23.3358 21.0088C23.1467 21.3323 22.8878 21.5837 22.5593 21.7629C22.2357 21.9371 21.8773 22.0242 21.4841 22.0242ZM21.4841 21.285C21.7031 21.285 21.9072 21.2328 22.0964 21.1282C22.2905 21.0237 22.4473 20.8669 22.5668 20.6578C22.6862 20.4488 22.746 20.1949 22.746 19.8962C22.746 19.5976 22.6887 19.3462 22.5742 19.1421C22.4597 18.933 22.3079 18.7762 22.1188 18.6717C21.9296 18.5672 21.7255 18.5149 21.5065 18.5149C21.2875 18.5149 21.0834 18.5672 20.8942 18.6717C20.71 18.7762 20.5632 18.933 20.4537 19.1421C20.3442 19.3462 20.2894 19.5976 20.2894 19.8962C20.2894 20.3393 20.4014 20.6827 20.6254 20.9266C20.8544 21.1656 21.1406 21.285 21.4841 21.285ZM24.3356 21.2492C24.6223 21.0103 24.8508 20.8116 25.021 20.6534C25.1913 20.4921 25.3331 20.3248 25.4466 20.1516C25.5601 19.9784 25.6169 19.8081 25.6169 19.6409C25.6169 19.4886 25.581 19.3691 25.5093 19.2825C25.4377 19.1959 25.3271 19.1526 25.1778 19.1526C25.0285 19.1526 24.9135 19.2033 24.8329 19.3049C24.7522 19.4034 24.7104 19.5393 24.7074 19.7126H24.0981C24.1101 19.3542 24.2161 19.0824 24.4162 18.8972C24.6193 18.712 24.8762 18.6194 25.1868 18.6194C25.5273 18.6194 25.7886 18.7105 25.9708 18.8927C26.153 19.0719 26.2441 19.3094 26.2441 19.605C26.2441 19.838 26.1813 20.0605 26.0559 20.2726C25.9305 20.4846 25.7871 20.6698 25.6258 20.8281C25.4645 20.9834 25.254 21.1715 24.9941 21.3926H26.3157V21.9122H24.1026V21.4463L24.3356 21.2492Z" fill="#CACACA"/>
</svg>
