<svg width="37" height="37" viewBox="0 0 37 37" fill="none" xmlns="http://www.w3.org/2000/svg">
<path d="M0.921875 18.8399C0.921875 8.94298 8.94493 0.919922 18.8419 0.919922C28.7388 0.919922 36.7619 8.94298 36.7619 18.8399C36.7619 28.7369 28.7388 36.7599 18.8419 36.7599C8.94493 36.7599 0.921875 28.7369 0.921875 18.8399Z" fill="#5E1B8B"/>
<g clip-path="url(#clip0_4914_63150)">
<path d="M18.8351 6.49253C18.882 6.49048 18.929 6.48844 18.9774 6.48633C19.3127 6.55809 19.5095 6.77689 19.6913 7.05706C19.7495 7.15321 19.8069 7.2498 19.8637 7.34675C19.9266 7.45068 19.9897 7.55451 20.0528 7.65825C20.0841 7.70974 20.1154 7.76124 20.1475 7.8143C20.3726 8.17822 20.6197 8.52758 20.8653 8.87773C20.8856 8.90679 20.9058 8.93586 20.9266 8.9658C21.2463 9.42495 21.5859 9.86858 21.9262 10.3126C22.067 10.4967 22.2063 10.6819 22.3444 10.868C22.5837 11.1902 22.8315 11.5035 23.0862 11.8136C23.2901 12.063 23.4846 12.3182 23.6765 12.5769C23.8568 12.8195 24.0416 13.0583 24.2281 13.2962C25.0473 14.3462 25.8089 15.4363 26.496 16.5777C26.522 16.6203 26.522 16.6203 26.5486 16.6638C27.093 17.5597 27.5266 18.5478 27.7953 19.5615C27.8047 19.5968 27.8141 19.6321 27.8238 19.6685C28.0208 20.4243 28.104 21.1613 28.1021 21.9407C28.1021 22.0009 28.1021 22.0009 28.1021 22.0624C28.1001 22.721 28.0535 23.3482 27.8916 23.989C27.8808 24.0325 27.8699 24.0761 27.8588 24.1209C27.5685 25.2616 27.0975 26.3561 26.3997 27.3096C26.3644 27.3585 26.3291 27.4075 26.2927 27.4579C26.0708 27.7593 25.8301 28.04 25.5756 28.3142C25.5485 28.3434 25.5215 28.3726 25.4937 28.4026C24.1623 29.8123 22.3277 30.7194 20.4322 31.0634C20.3887 31.0719 20.3452 31.0804 20.3003 31.0891C19.8252 31.1735 19.3551 31.1788 18.8742 31.1777C18.8316 31.1776 18.789 31.1776 18.7452 31.1776C18.0716 31.1757 17.4298 31.1347 16.7747 30.9671C16.7313 30.9563 16.6879 30.9455 16.6432 30.9343C15.5023 30.644 14.4077 30.1731 13.4541 29.4752C13.4051 29.4399 13.3562 29.4046 13.3058 29.3683C13.0044 29.1464 12.7237 28.9056 12.4495 28.6511C12.4203 28.6241 12.3911 28.597 12.3611 28.5692C10.9517 27.2381 10.0437 25.403 9.70033 23.5077C9.69184 23.4636 9.68334 23.4195 9.67458 23.374C9.59397 22.9158 9.5848 22.4646 9.58604 22.0008C9.5861 21.9605 9.58615 21.9202 9.58621 21.8787C9.59203 20.3882 9.96036 19.0223 10.6147 17.6846C10.6468 17.6174 10.6788 17.5501 10.7108 17.4829C11.1178 16.6381 11.6259 15.8585 12.1547 15.0859C12.1792 15.0501 12.2036 15.0144 12.2288 14.9776C12.5752 14.4736 12.9426 13.9867 13.315 13.5017C13.4796 13.2872 13.6417 13.071 13.803 12.8541C14.0089 12.5779 14.2212 12.3079 14.4375 12.0399C14.6436 11.7839 14.8436 11.5236 15.0425 11.262C15.2043 11.0494 15.3676 10.8381 15.5324 10.6277C16.4405 9.46763 17.2744 8.26153 18.0517 7.01006C18.2622 6.6952 18.4394 6.50031 18.8351 6.49253ZM18.796 8.8296C18.7238 8.91648 18.7238 8.91648 18.6506 9.03075C18.6216 9.07407 18.5926 9.11738 18.5627 9.16201C18.5159 9.23271 18.5159 9.23271 18.4681 9.30484C18.4023 9.40278 18.3364 9.50065 18.2703 9.59847C18.2207 9.6721 18.2207 9.6721 18.1701 9.74722C17.7547 10.358 17.3067 10.9433 16.8506 11.524C16.7442 11.6598 16.6391 11.7967 16.5341 11.9337C16.3457 12.1791 16.1558 12.4235 15.9656 12.6676C15.7185 12.9848 15.4733 13.3033 15.2297 13.6232C15.0688 13.8341 14.9061 14.0436 14.7423 14.2523C14.193 14.9534 13.6751 15.674 13.1886 16.4201C13.141 16.4931 13.0932 16.566 13.0452 16.6387C11.9945 18.2349 11.1679 19.9976 11.1742 21.9407C11.1742 21.9742 11.1743 22.0078 11.1743 22.0424C11.1841 24.1286 12.0707 25.9649 13.5022 27.454C13.6254 27.5735 13.7536 27.6832 13.8872 27.7909C13.9326 27.8279 13.978 27.8649 14.0248 27.9031C14.8961 28.601 15.8875 29.0966 16.9672 29.379C17.0059 29.3892 17.0446 29.3994 17.0845 29.4099C19.0046 29.8904 21.1042 29.52 22.7903 28.5127C23.5061 28.0801 24.1893 27.5292 24.7153 26.8765C24.7524 26.8311 24.7894 26.7857 24.8276 26.7389C26.1536 25.0835 26.6911 23.0413 26.4732 20.9406C26.4458 20.734 26.403 20.5333 26.3516 20.3315C26.3425 20.2949 26.3335 20.2583 26.3242 20.2206C25.9956 18.93 25.3701 17.7198 24.6309 16.6189C24.5775 16.5393 24.5248 16.4592 24.4723 16.379C23.9896 15.6445 23.4675 14.9413 22.9318 14.2449C22.8444 14.1311 22.7574 14.017 22.6706 13.9027C22.4016 13.5487 22.1287 13.1986 21.8495 12.8526C21.6507 12.6051 21.4601 12.3521 21.2708 12.0974C21.1168 11.8908 20.9595 11.6872 20.7992 11.4855C20.1489 10.6646 19.5278 9.8109 18.9655 8.92717C18.9413 8.89497 18.9171 8.86277 18.8922 8.8296C18.8604 8.8296 18.8287 8.8296 18.796 8.8296Z" fill="#CACACA"/>
<path d="M22.9798 17.2995C23.2148 17.4086 23.3519 17.5456 23.461 17.7807C23.5017 18.0827 23.5076 18.3115 23.3299 18.5675C23.2155 18.7156 23.0833 18.8453 22.9507 18.977C22.9188 19.009 22.8869 19.041 22.8541 19.074C22.7477 19.1809 22.6408 19.2874 22.534 19.3939C22.4575 19.4706 22.381 19.5473 22.3045 19.624C22.0969 19.832 21.889 20.0397 21.681 20.2474C21.4635 20.4646 21.2462 20.6822 21.0289 20.8997C20.6406 21.2881 20.2521 21.6763 19.8635 22.0645C19.5111 22.4164 19.159 22.7685 18.8071 23.1209C18.3983 23.5303 17.9892 23.9395 17.58 24.3485C17.3634 24.5649 17.1469 24.7814 16.9306 24.998C16.7273 25.2016 16.5237 25.4049 16.32 25.6081C16.2452 25.6828 16.1705 25.7575 16.0959 25.8324C15.9941 25.9344 15.8922 26.036 15.7901 26.1376C15.7604 26.1675 15.7308 26.1973 15.7003 26.2281C15.6728 26.2553 15.6454 26.2824 15.6172 26.3104C15.5937 26.3339 15.5702 26.3574 15.5459 26.3816C15.328 26.5638 15.1169 26.5598 14.8425 26.5545C14.5874 26.5271 14.4693 26.4057 14.2992 26.2267C14.1862 25.9832 14.1743 25.7446 14.221 25.4807C14.3613 25.2419 14.5355 25.0563 14.7313 24.8619C14.7791 24.8139 14.7791 24.8139 14.8279 24.7649C14.9344 24.658 15.0412 24.5515 15.148 24.445C15.2245 24.3684 15.301 24.2917 15.3776 24.215C15.5851 24.0069 15.793 23.7992 16.001 23.5916C16.2185 23.3743 16.4358 23.1568 16.6531 22.9393C17.0414 22.5508 17.4299 22.1626 17.8185 21.7745C18.1709 21.4226 18.523 21.0704 18.8749 20.718C19.2837 20.3087 19.6928 19.8994 20.102 19.4905C20.3186 19.274 20.5351 19.0576 20.7515 18.8409C20.9547 18.6373 21.1583 18.434 21.362 18.2308C21.4368 18.1562 21.5115 18.0814 21.5862 18.0065C21.6879 17.9046 21.7899 17.8029 21.8919 17.7013C21.9216 17.6715 21.9512 17.6416 21.9818 17.6108C22.0092 17.5837 22.0366 17.5565 22.0648 17.5285C22.1001 17.4933 22.1001 17.4933 22.1361 17.4573C22.3854 17.2489 22.67 17.2662 22.9798 17.2995Z" fill="#CACACA"/>
<path d="M22.2593 23.6983C22.3182 23.7296 22.3182 23.7296 22.3783 23.7616C22.8607 24.052 23.1737 24.475 23.3662 24.9977C23.3837 25.041 23.4012 25.0844 23.4192 25.1291C23.5771 25.7039 23.5002 26.354 23.2218 26.8745C23.2009 26.9138 23.18 26.9531 23.1584 26.9935C22.868 27.4759 22.445 27.7889 21.9224 27.9814C21.8791 27.9989 21.8357 28.0164 21.791 28.0344C21.2162 28.1924 20.5661 28.1154 20.0456 27.837C20.0063 27.8161 19.967 27.7952 19.9266 27.7737C19.4442 27.4833 19.1312 27.0603 18.9387 26.5377C18.9212 26.4943 18.9037 26.4509 18.8857 26.4063C18.7277 25.8314 18.8047 25.1813 19.0831 24.6608C19.104 24.6215 19.1249 24.5822 19.1464 24.5418C19.4368 24.0594 19.8598 23.7464 20.3824 23.5539C20.4258 23.5364 20.4692 23.5189 20.5138 23.5009C21.0887 23.3429 21.7387 23.4199 22.2593 23.6983ZM20.5088 25.3646C20.4027 25.5849 20.3922 25.7679 20.4306 26.0083C20.5427 26.2411 20.6789 26.3774 20.9118 26.4895C21.1522 26.5279 21.3352 26.5174 21.5555 26.4113C21.728 26.2553 21.8548 26.1303 21.8927 25.8929C21.905 25.6193 21.8712 25.4477 21.6818 25.2383C21.4724 25.0489 21.3008 25.015 21.0272 25.0274C20.7898 25.0653 20.6648 25.1921 20.5088 25.3646Z" fill="#CACACA"/>
<path d="M17.6421 15.9991C17.701 16.0304 17.701 16.0304 17.7611 16.0624C18.2435 16.3528 18.5565 16.7758 18.749 17.2984C18.7665 17.3418 18.784 17.3852 18.802 17.4298C18.96 18.0047 18.883 18.6548 18.6046 19.1753C18.5837 19.2146 18.5628 19.2539 18.5413 19.2943C18.2509 19.7767 17.8279 20.0897 17.3052 20.2822C17.2619 20.2997 17.2185 20.3172 17.1738 20.3352C16.599 20.4932 15.9489 20.4162 15.4284 20.1378C15.3891 20.1169 15.3498 20.096 15.3094 20.0745C14.827 19.7841 14.514 19.3611 14.3215 18.8384C14.304 18.7951 14.2865 18.7517 14.2685 18.707C14.1105 18.1322 14.1875 17.4821 14.4659 16.9616C14.4868 16.9223 14.5077 16.883 14.5292 16.8426C14.8196 16.3602 15.2426 16.0472 15.7652 15.8547C15.8086 15.8372 15.852 15.8197 15.8966 15.8017C16.4715 15.6437 17.1216 15.7207 17.6421 15.9991ZM15.8916 17.6654C15.7855 17.8857 15.775 18.0687 15.8134 18.3091C15.9255 18.5419 16.0618 18.6782 16.2946 18.7903C16.535 18.8287 16.718 18.8182 16.9383 18.7121C17.1108 18.5561 17.2376 18.4311 17.2755 18.1936C17.2879 17.9201 17.254 17.7484 17.0646 17.5391C16.8552 17.3496 16.6836 17.3158 16.41 17.3281C16.1726 17.366 16.0476 17.4929 15.8916 17.6654Z" fill="#CACACA"/>
</g>
<defs>
<clipPath id="clip0_4914_63150">
<rect width="24.64" height="24.64" fill="white" transform="translate(6.52344 6.51953)"/>
</clipPath>
</defs>
</svg>
