<svg width="37" height="37" viewBox="0 0 37 37" fill="none" xmlns="http://www.w3.org/2000/svg">
<path d="M0.921875 18.8399C0.921875 8.94298 8.94493 0.919922 18.8419 0.919922C28.7388 0.919922 36.7619 8.94298 36.7619 18.8399C36.7619 28.7369 28.7388 36.7599 18.8419 36.7599C8.94493 36.7599 0.921875 28.7369 0.921875 18.8399Z" fill="#129FC6" fill-opacity="0.2"/>
<g clip-path="url(#clip0_4679_55094)">
<path d="M12.5474 9.95455C12.8255 10.1155 13.0072 10.3472 13.1099 10.6494C13.1221 10.7874 13.1221 10.7874 13.1223 10.9424C13.1226 11.0017 13.1229 11.0609 13.1232 11.122C13.1231 11.1876 13.1229 11.2532 13.1227 11.3188C13.1229 11.3886 13.1232 11.4584 13.1234 11.5282C13.124 11.7201 13.124 11.9119 13.1239 12.1038C13.1239 12.3107 13.1244 12.5176 13.1248 12.7245C13.1256 13.1299 13.1259 13.5353 13.126 13.9407C13.126 14.2702 13.1262 14.5997 13.1265 14.9292C13.1274 15.8632 13.1278 16.7972 13.1277 17.7313C13.1277 17.7817 13.1277 17.832 13.1277 17.8839C13.1277 17.9343 13.1277 17.9848 13.1277 18.0367C13.1277 18.854 13.1286 19.6712 13.1299 20.4885C13.1313 21.3275 13.132 22.1665 13.1319 23.0055C13.1319 23.4766 13.1321 23.9477 13.1332 24.4188C13.1341 24.8199 13.1343 25.221 13.1336 25.6221C13.1333 25.8267 13.1333 26.0313 13.1341 26.236C13.1349 26.4234 13.1347 26.6108 13.1339 26.7982C13.1338 26.8659 13.1339 26.9336 13.1345 27.0013C13.1376 27.426 13.1205 27.739 12.8333 28.0717C12.8065 28.0932 12.7796 28.1147 12.7519 28.1368C12.7118 28.1701 12.7118 28.1701 12.6709 28.2041C12.3973 28.3827 12.1285 28.3946 11.8105 28.3594C11.5133 28.2744 11.3041 28.0863 11.1368 27.83C11.0493 27.6455 11.0284 27.4997 11.0281 27.2963C11.0278 27.237 11.0275 27.1778 11.0272 27.1167C11.0273 27.0511 11.0275 26.9855 11.0276 26.9199C11.0275 26.8501 11.0272 26.7803 11.027 26.7105C11.0264 26.5186 11.0264 26.3268 11.0265 26.1349C11.0265 25.928 11.026 25.7211 11.0255 25.5142C11.0247 25.1088 11.0245 24.7034 11.0244 24.298C11.0244 23.9685 11.0242 23.639 11.0239 23.3096C11.023 22.3755 11.0226 21.4415 11.0227 20.5074C11.0227 20.4571 11.0227 20.4067 11.0227 20.3548C11.0227 20.3044 11.0227 20.254 11.0227 20.202C11.0227 19.3847 11.0218 18.5675 11.0204 17.7502C11.0191 16.9112 11.0184 16.0722 11.0185 15.2332C11.0185 14.7621 11.0182 14.291 11.0172 13.8199C11.0163 13.4188 11.0161 13.0177 11.0168 12.6166C11.0171 12.412 11.0171 12.2074 11.0163 12.0027C11.0155 11.8153 11.0156 11.6279 11.0165 11.4405C11.0166 11.3728 11.0165 11.3051 11.0159 11.2374C11.0128 10.8127 11.0299 10.4997 11.317 10.167C11.3439 10.1455 11.3708 10.124 11.3984 10.1019C11.4252 10.0797 11.4519 10.0575 11.4795 10.0346C11.7971 9.8273 12.2002 9.79898 12.5474 9.95455Z" fill="#CACACA"/>
<path d="M30.5685 11.3177C30.8675 11.4699 31.0574 11.6747 31.165 11.9974C31.1695 12.077 31.1713 12.1568 31.1714 12.2366C31.1717 12.2862 31.1719 12.3359 31.1721 12.3871C31.1721 12.4418 31.1721 12.4966 31.1721 12.553C31.1722 12.611 31.1724 12.669 31.1726 12.7288C31.173 12.8902 31.1733 13.0515 31.1734 13.2128C31.1736 13.3868 31.174 13.5607 31.1745 13.7346C31.1754 14.1547 31.1759 14.5748 31.1763 14.995C31.1765 15.1928 31.1768 15.3906 31.177 15.5885C31.1779 16.2461 31.1786 16.9037 31.1789 17.5613C31.179 17.7319 31.1791 17.9026 31.1792 18.0733C31.1792 18.1157 31.1792 18.1581 31.1793 18.2018C31.1797 18.889 31.1809 19.5762 31.1824 20.2633C31.184 20.9688 31.1849 21.6742 31.1851 22.3797C31.1852 22.7758 31.1856 23.1719 31.1868 23.568C31.1879 23.9054 31.1882 24.2427 31.1878 24.58C31.1876 24.7521 31.1876 24.9242 31.1886 25.0963C31.1896 25.2829 31.1891 25.4696 31.1885 25.6563C31.189 25.7105 31.1895 25.7647 31.1901 25.8206C31.1871 26.182 31.1373 26.4514 30.8813 26.7248C30.5747 26.9409 30.3054 27.0487 29.9267 26.9932C29.6077 26.9087 29.3739 26.7027 29.1919 26.4349C29.0787 26.135 29.0818 25.8489 29.0827 25.5309C29.0825 25.474 29.0823 25.4171 29.0821 25.3584C29.0816 25.201 29.0815 25.0435 29.0816 24.8861C29.0816 24.7161 29.0811 24.546 29.0806 24.376C29.0798 24.0431 29.0796 23.7102 29.0795 23.3773C29.0795 23.1066 29.0793 22.836 29.079 22.5653C29.0781 21.7974 29.0777 21.0296 29.0778 20.2617C29.0778 20.2203 29.0778 20.1789 29.0778 20.1363C29.0778 20.0949 29.0778 20.0535 29.0778 20.0108C29.0778 19.3396 29.0769 18.6683 29.0755 17.9971C29.0742 17.3074 29.0735 16.6178 29.0736 15.9281C29.0736 15.541 29.0734 15.154 29.0723 14.767C29.0714 14.4375 29.0712 14.108 29.0719 13.7785C29.0722 13.6105 29.0722 13.4425 29.0714 13.2745C29.0706 13.0921 29.0711 12.9097 29.0718 12.7272C29.0713 12.6746 29.0708 12.6219 29.0703 12.5676C29.0736 12.2053 29.1211 11.8462 29.3723 11.567C29.7055 11.2599 30.1344 11.1719 30.5685 11.3177Z" fill="#CACACA"/>
<path d="M8.1617 12.6501C8.37002 12.8116 8.50569 13.0499 8.58805 13.297C8.59258 13.3632 8.59452 13.4297 8.59478 13.496C8.59506 13.5368 8.59533 13.5775 8.59561 13.6195C8.59567 13.6642 8.59573 13.709 8.59578 13.7551C8.59603 13.8026 8.59627 13.8501 8.59653 13.8991C8.59728 14.0592 8.59769 14.2192 8.5981 14.3792C8.59856 14.4937 8.59903 14.6082 8.59953 14.7226C8.60091 15.0667 8.60186 15.4107 8.60267 15.7548C8.6029 15.852 8.60314 15.9492 8.60339 16.0464C8.60488 16.6503 8.60616 17.2542 8.60697 17.8582C8.60716 17.9981 8.60735 18.1379 8.60755 18.2778C8.60759 18.3126 8.60764 18.3473 8.60769 18.3832C8.60851 18.946 8.61049 19.5087 8.61294 20.0715C8.61543 20.6496 8.61683 21.2277 8.61718 21.8058C8.6174 22.1302 8.61811 22.4547 8.62005 22.7791C8.62183 23.0845 8.62223 23.3899 8.62159 23.6953C8.6216 23.8072 8.62209 23.9191 8.62312 24.0311C8.62446 24.1843 8.624 24.3373 8.6231 24.4905C8.62431 24.5565 8.62431 24.5565 8.62555 24.6238C8.62061 24.964 8.50744 25.2046 8.2993 25.4726C8.06471 25.6865 7.82871 25.7529 7.5137 25.7678C7.18353 25.7514 6.94143 25.6118 6.71118 25.3764C6.51977 25.0929 6.49098 24.8372 6.49423 24.5019C6.49393 24.4539 6.49363 24.4058 6.49332 24.3564C6.49256 24.1962 6.49316 24.036 6.49377 23.8758C6.49351 23.7607 6.49317 23.6456 6.49275 23.5305C6.49196 23.2507 6.49208 22.9709 6.49264 22.691C6.49307 22.4636 6.49313 22.2361 6.49292 22.0086C6.49289 21.9762 6.49286 21.9437 6.49283 21.9103C6.49277 21.8444 6.49271 21.7786 6.49264 21.7127C6.49209 21.0955 6.49272 20.4783 6.49376 19.8611C6.49462 19.3319 6.49447 18.8028 6.49358 18.2737C6.49255 17.6586 6.49215 17.0436 6.49274 16.4285C6.4928 16.3629 6.49286 16.2973 6.49292 16.2316C6.49295 16.1994 6.49298 16.1671 6.49301 16.1338C6.49318 15.9067 6.4929 15.6796 6.49244 15.4525C6.49189 15.1466 6.49227 14.8407 6.49338 14.5348C6.49364 14.4226 6.49357 14.3104 6.49314 14.1982C6.49261 14.0449 6.49328 13.8916 6.49423 13.7384C6.49381 13.6941 6.49338 13.6497 6.49293 13.6041C6.49693 13.274 6.57319 13.0112 6.80235 12.7665C7.23975 12.4583 7.6803 12.3892 8.1617 12.6501Z" fill="#CACACA"/>
<path d="M17.3137 12.7361C17.5577 12.9853 17.6591 13.2665 17.6641 13.6102C17.6635 13.6543 17.663 13.6985 17.6624 13.744C17.6627 13.792 17.663 13.8401 17.6634 13.8896C17.6642 14.0496 17.6634 14.2096 17.6625 14.3697C17.6628 14.4848 17.6631 14.5999 17.6635 14.7151C17.6643 14.9947 17.664 15.2744 17.6632 15.554C17.6625 15.7814 17.6623 16.0087 17.6625 16.2361C17.6625 16.2685 17.6625 16.3009 17.6625 16.3343C17.6626 16.4002 17.6626 16.466 17.6627 16.5319C17.6631 17.1137 17.6623 17.6954 17.6609 18.2772C17.6595 18.8411 17.6591 19.4051 17.6599 19.969C17.6607 20.5838 17.6609 21.1987 17.66 21.8135C17.6599 21.8791 17.6599 21.9447 17.6598 22.0103C17.6597 22.0426 17.6597 22.0749 17.6596 22.1081C17.6594 22.3351 17.6595 22.5621 17.6598 22.7891C17.6602 23.0948 17.6596 23.4005 17.6583 23.7062C17.658 23.8183 17.658 23.9304 17.6583 24.0426C17.6587 24.1957 17.658 24.3489 17.6569 24.502C17.6575 24.5684 17.6575 24.5684 17.6581 24.6362C17.6539 24.966 17.5783 25.2308 17.3468 25.4736C17.0483 25.6809 16.8021 25.7985 16.429 25.7612C16.09 25.6712 15.8454 25.5347 15.659 25.2318C15.5369 24.9998 15.5489 24.775 15.5496 24.5194C15.5493 24.4715 15.5491 24.4237 15.5488 24.3744C15.5481 24.2139 15.548 24.0534 15.548 23.8928C15.5476 23.7778 15.5472 23.6628 15.5468 23.5478C15.5457 23.2352 15.5453 22.9225 15.5451 22.6099C15.5449 22.4146 15.5446 22.2193 15.5443 22.024C15.5433 21.4829 15.5425 20.9419 15.5424 20.4008C15.5424 20.3662 15.5424 20.3316 15.5424 20.2959C15.5423 20.2258 15.5423 20.1556 15.5423 20.0854C15.5423 20.0506 15.5423 20.0158 15.5423 19.9799C15.5423 19.945 15.5423 19.9102 15.5423 19.8743C15.5421 19.3094 15.5408 18.7446 15.539 18.1797C15.5371 17.5994 15.5362 17.0191 15.5362 16.4388C15.5362 16.1131 15.5358 15.7875 15.5344 15.4618C15.5331 15.1554 15.533 14.8491 15.5338 14.5427C15.5339 14.4304 15.5335 14.318 15.5328 14.2057C15.5318 14.0521 15.5323 13.8986 15.5332 13.745C15.5325 13.7007 15.5319 13.6564 15.5312 13.6108C15.5353 13.297 15.6164 13.0692 15.8034 12.8156C16.2119 12.4211 16.8639 12.3525 17.3137 12.7361Z" fill="#CACACA"/>
<path d="M26.0729 13.6184C26.3429 13.773 26.5604 13.992 26.6627 14.2909C26.6928 14.4541 26.6906 14.6162 26.6905 14.7815C26.6907 14.8198 26.6909 14.8581 26.6911 14.8977C26.6916 15.0263 26.6918 15.1549 26.692 15.2835C26.6923 15.3757 26.6926 15.4679 26.6929 15.5601C26.6939 15.863 26.6944 16.1658 26.6949 16.4687C26.6951 16.573 26.6953 16.6774 26.6955 16.7817C26.6964 17.2719 26.6971 17.7621 26.6975 18.2524C26.698 18.8179 26.6993 19.3834 26.7012 19.9489C26.7027 20.3862 26.7034 20.8235 26.7035 21.2609C26.7036 21.5219 26.7041 21.783 26.7053 22.0441C26.7064 22.2899 26.7066 22.5356 26.7061 22.7814C26.7061 22.8714 26.7064 22.9614 26.7071 23.0513C26.7141 24.0726 26.7141 24.0726 26.4067 24.4095C26.127 24.6718 25.8571 24.7252 25.4805 24.7169C25.2215 24.6906 25.0465 24.6099 24.8667 24.4214C24.6234 24.116 24.5514 23.8347 24.5534 23.4457C24.5532 23.4072 24.553 23.3687 24.5529 23.3291C24.5524 23.2005 24.5526 23.072 24.5527 22.9434C24.5525 22.8511 24.5523 22.7587 24.552 22.6664C24.5514 22.4158 24.5513 22.1652 24.5514 21.9147C24.5515 21.7054 24.5513 21.4961 24.551 21.2868C24.5505 20.793 24.5505 20.2991 24.5508 19.8053C24.5511 19.2961 24.5505 18.787 24.5494 18.2778C24.5486 17.8404 24.5483 17.403 24.5485 16.9656C24.5485 16.7045 24.5484 16.4433 24.5478 16.1822C24.5471 15.9366 24.5472 15.691 24.5479 15.4454C24.548 15.3553 24.5479 15.2653 24.5475 15.1753C24.5469 15.0522 24.5473 14.9291 24.548 14.8059C24.5476 14.7705 24.5472 14.7351 24.5469 14.6987C24.5501 14.3899 24.6186 14.1276 24.8216 13.8861C25.1966 13.5722 25.6004 13.3956 26.0729 13.6184Z" fill="#CACACA"/>
<path d="M21.5975 15.7293C21.8974 15.9036 22.0716 16.1393 22.16 16.4722C22.1743 16.6446 22.1741 16.8164 22.174 16.9893C22.1743 17.0408 22.1746 17.0923 22.1749 17.1454C22.1758 17.3154 22.176 17.4854 22.1761 17.6554C22.1764 17.7739 22.1768 17.8923 22.1771 18.0107C22.1777 18.2589 22.1779 18.507 22.1778 18.7552C22.1778 19.0728 22.1791 19.3904 22.1808 19.708C22.1818 19.9525 22.182 20.1971 22.182 20.4417C22.1821 20.5588 22.1825 20.6759 22.1833 20.7929C22.1842 20.9568 22.1839 21.1207 22.1834 21.2846C22.1839 21.3327 22.1844 21.3808 22.185 21.4304C22.1819 21.7745 22.1108 22.033 21.8834 22.2965C21.8566 22.318 21.8297 22.3394 21.802 22.3615C21.7619 22.3948 21.7619 22.3948 21.721 22.4288C21.434 22.6162 21.1454 22.6179 20.8125 22.5841C20.5318 22.5103 20.3688 22.3492 20.1977 22.1217C20.0345 21.8036 20.0283 21.4747 20.0293 21.1253C20.029 21.0772 20.0288 21.029 20.0285 20.9793C20.0278 20.821 20.0279 20.6627 20.028 20.5044C20.0278 20.3938 20.0276 20.2831 20.0274 20.1725C20.027 19.941 20.027 19.7095 20.0273 19.478C20.0276 19.182 20.0267 18.886 20.0256 18.59C20.0249 18.3616 20.0249 18.1332 20.025 17.9049C20.025 17.7958 20.0247 17.6867 20.0243 17.5775C20.0237 17.4247 20.024 17.2719 20.0246 17.1191C20.0242 17.0745 20.0238 17.0298 20.0234 16.9838C20.027 16.5452 20.1272 16.1989 20.4335 15.8786C20.749 15.5986 21.2159 15.5597 21.5975 15.7293Z" fill="#CACACA"/>
</g>
<defs>
<clipPath id="clip0_4679_55094">
<rect width="24.64" height="18.48" fill="white" transform="translate(6.52344 9.87988)"/>
</clipPath>
</defs>
</svg>
