<svg width="37" height="36" viewBox="0 0 37 36" fill="none" xmlns="http://www.w3.org/2000/svg">
<path d="M0.664062 17.9649C0.664062 8.06798 8.68712 0.0449219 18.5841 0.0449219C28.481 0.0449219 36.5041 8.06798 36.5041 17.9649C36.5041 27.8619 28.481 35.8849 18.5841 35.8849C8.68712 35.8849 0.664062 27.8619 0.664062 17.9649Z" fill="#103A34"/>
<path d="M28.4823 20.1754C28.2027 19.2507 27.7404 18.4443 27.1275 17.7884C26.3426 16.896 25.2997 16.2831 24.1277 16.0143C23.5363 13.3263 21.8805 11.391 19.5258 10.6706C16.9669 9.87494 13.9993 10.6491 12.1392 12.5952C10.5049 14.3048 9.96732 16.6595 10.6017 19.1647C8.45128 19.6915 7.38684 21.4871 7.26856 23.1967C7.25781 23.3149 7.25781 23.4225 7.25781 23.53C7.25781 25.5514 8.58031 27.82 11.5264 28.0351H22.6869C24.2137 28.0351 25.676 27.4652 26.7942 26.4438C28.5468 24.9062 29.1919 22.5085 28.4823 20.1754Z" fill="#CACACA"/>
<path d="M26.7509 22.7261C26.7509 21.9178 27.4061 21.2626 28.2144 21.2626C29.0226 21.2626 29.6778 21.9178 29.6778 22.7261C29.6778 23.5343 29.0226 24.1895 28.2144 24.1895C27.4061 24.1895 26.7509 23.5343 26.7509 22.7261Z" fill="#CACACA"/>
<path d="M26.7509 22.7261C26.7509 21.9178 27.4061 21.2626 28.2144 21.2626C29.0226 21.2626 29.6778 21.9178 29.6778 22.7261C29.6778 23.5343 29.0226 24.1895 28.2144 24.1895C27.4061 24.1895 26.7509 23.5343 26.7509 22.7261Z" stroke="#103A34" stroke-width="0.298667"/>
<path d="M28.7656 18.9639C28.7656 18.3701 29.247 17.8887 29.8408 17.8887C30.4346 17.8887 30.916 18.3701 30.916 18.9639C30.916 19.5577 30.4346 20.0391 29.8408 20.0391C29.247 20.0391 28.7656 19.5577 28.7656 18.9639Z" fill="#CACACA"/>
<path d="M6.92969 13.9092C6.92969 13.3154 7.41107 12.834 8.00489 12.834C8.5987 12.834 9.08009 13.3154 9.08009 13.9092C9.08009 14.503 8.5987 14.9844 8.00489 14.9844C7.41107 14.9844 6.92969 14.503 6.92969 13.9092Z" fill="#CACACA"/>
<path d="M5.96094 15.8982C5.96094 15.4528 6.32197 15.0918 6.76734 15.0918C7.2127 15.0918 7.57374 15.4528 7.57374 15.8982C7.57374 16.3436 7.2127 16.7046 6.76734 16.7046C6.32197 16.7046 5.96094 16.3436 5.96094 15.8982Z" fill="#CACACA"/>
<path d="M16.0834 12.0825C16.0834 10.7217 17.1865 9.61853 18.5474 9.61853C19.9082 9.61853 21.0114 10.7217 21.0114 12.0825C21.0114 13.4434 19.9082 14.5465 18.5474 14.5465C17.1865 14.5465 16.0834 13.4434 16.0834 12.0825Z" fill="#CACACA"/>
<path d="M16.0834 12.0825C16.0834 10.7217 17.1865 9.61853 18.5474 9.61853C19.9082 9.61853 21.0114 10.7217 21.0114 12.0825C21.0114 13.4434 19.9082 14.5465 18.5474 14.5465C17.1865 14.5465 16.0834 13.4434 16.0834 12.0825Z" stroke="#103A34" stroke-width="0.448"/>
<path d="M6.11027 20.5762C6.11027 19.471 7.00618 18.5751 8.11134 18.5751C9.2165 18.5751 10.1124 19.471 10.1124 20.5762C10.1124 21.6813 9.2165 22.5772 8.11134 22.5772C7.00618 22.5772 6.11027 21.6813 6.11027 20.5762Z" fill="#CACACA"/>
<path d="M6.11027 20.5762C6.11027 19.471 7.00618 18.5751 8.11134 18.5751C9.2165 18.5751 10.1124 19.471 10.1124 20.5762C10.1124 21.6813 9.2165 22.5772 8.11134 22.5772C7.00618 22.5772 6.11027 21.6813 6.11027 20.5762Z" stroke="#103A34" stroke-width="0.298667"/>
<path d="M27.3594 16.115C27.3594 15.6696 27.7204 15.3086 28.1658 15.3086C28.6111 15.3086 28.9722 15.6696 28.9722 16.115C28.9722 16.5604 28.6111 16.9214 28.1658 16.9214C27.7204 16.9214 27.3594 16.5604 27.3594 16.115Z" fill="#CACACA"/>
</svg>
