<svg width="37" height="37" viewBox="0 0 37 37" fill="none" xmlns="http://www.w3.org/2000/svg">
<path d="M0.664062 18.3653C0.664062 8.46837 8.68712 0.445312 18.5841 0.445312C28.481 0.445312 36.5041 8.46837 36.5041 18.3653C36.5041 28.2623 28.481 36.2853 18.5841 36.2853C8.68712 36.2853 0.664062 28.2623 0.664062 18.3653Z" fill="#6A1443"/>
<path d="M28.4823 20.5757C28.2027 19.6511 27.7404 18.8447 27.1275 18.1888C26.3426 17.2964 25.2997 16.6835 24.1277 16.4147C23.5363 13.7267 21.8805 11.7914 19.5258 11.071C16.9669 10.2753 13.9993 11.0495 12.1392 12.9956C10.5049 14.7052 9.96732 17.0598 10.6017 19.5651C8.45128 20.0919 7.38684 21.8875 7.26856 23.5971C7.25781 23.7153 7.25781 23.8229 7.25781 23.9304C7.25781 25.9517 8.58031 28.2204 11.5264 28.4355H22.6869C24.2137 28.4355 25.676 27.8656 26.7942 26.8442C28.5468 25.3066 29.1919 22.9089 28.4823 20.5757Z" fill="#CACACA"/>
<path d="M26.7509 23.1265C26.7509 22.3182 27.4061 21.663 28.2144 21.663C29.0226 21.663 29.6778 22.3182 29.6778 23.1265C29.6778 23.9347 29.0226 24.5899 28.2144 24.5899C27.4061 24.5899 26.7509 23.9347 26.7509 23.1265Z" fill="#CACACA"/>
<path d="M26.7509 23.1265C26.7509 22.3182 27.4061 21.663 28.2144 21.663C29.0226 21.663 29.6778 22.3182 29.6778 23.1265C29.6778 23.9347 29.0226 24.5899 28.2144 24.5899C27.4061 24.5899 26.7509 23.9347 26.7509 23.1265Z" stroke="#6A1443" stroke-width="0.298667"/>
<path d="M28.7656 19.3643C28.7656 18.7704 29.247 18.2891 29.8408 18.2891C30.4346 18.2891 30.916 18.7704 30.916 19.3643C30.916 19.9581 30.4346 20.4395 29.8408 20.4395C29.247 20.4395 28.7656 19.9581 28.7656 19.3643Z" fill="#CACACA"/>
<path d="M6.92188 14.3115C6.92188 13.7177 7.40326 13.2363 7.99707 13.2363C8.59089 13.2363 9.07227 13.7177 9.07227 14.3115C9.07227 14.9053 8.59089 15.3867 7.99707 15.3867C7.40326 15.3867 6.92188 14.9053 6.92188 14.3115Z" fill="#CACACA"/>
<path d="M5.96094 16.2986C5.96094 15.8532 6.32197 15.4922 6.76734 15.4922C7.2127 15.4922 7.57374 15.8532 7.57374 16.2986C7.57374 16.744 7.2127 17.105 6.76734 17.105C6.32197 17.105 5.96094 16.744 5.96094 16.2986Z" fill="#CACACA"/>
<path d="M16.0834 12.4829C16.0834 11.1221 17.1865 10.0189 18.5474 10.0189C19.9082 10.0189 21.0114 11.1221 21.0114 12.4829C21.0114 13.8438 19.9082 14.9469 18.5474 14.9469C17.1865 14.9469 16.0834 13.8438 16.0834 12.4829Z" fill="#CACACA"/>
<path d="M16.0834 12.4829C16.0834 11.1221 17.1865 10.0189 18.5474 10.0189C19.9082 10.0189 21.0114 11.1221 21.0114 12.4829C21.0114 13.8438 19.9082 14.9469 18.5474 14.9469C17.1865 14.9469 16.0834 13.8438 16.0834 12.4829Z" stroke="#6A1443" stroke-width="0.448"/>
<path d="M6.11027 20.9766C6.11027 19.8714 7.00618 18.9755 8.11134 18.9755C9.2165 18.9755 10.1124 19.8714 10.1124 20.9766C10.1124 22.0817 9.2165 22.9776 8.11134 22.9776C7.00618 22.9776 6.11027 22.0817 6.11027 20.9766Z" fill="#CACACA"/>
<path d="M6.11027 20.9766C6.11027 19.8714 7.00618 18.9755 8.11134 18.9755C9.2165 18.9755 10.1124 19.8714 10.1124 20.9766C10.1124 22.0817 9.2165 22.9776 8.11134 22.9776C7.00618 22.9776 6.11027 22.0817 6.11027 20.9766Z" stroke="#6A1443" stroke-width="0.298667"/>
<path d="M27.3516 16.5154C27.3516 16.07 27.7126 15.709 28.158 15.709C28.6033 15.709 28.9644 16.07 28.9644 16.5154C28.9644 16.9607 28.6033 17.3218 28.158 17.3218C27.7126 17.3218 27.3516 16.9607 27.3516 16.5154Z" fill="#CACACA"/>
</svg>
