<svg width="37" height="37" viewBox="0 0 37 37" fill="none" xmlns="http://www.w3.org/2000/svg">
<path d="M0.921875 18.4395C0.921875 8.54259 8.94493 0.519531 18.8419 0.519531C28.7388 0.519531 36.7619 8.54259 36.7619 18.4395C36.7619 28.3365 28.7388 36.3595 18.8419 36.3595C8.94493 36.3595 0.921875 28.3365 0.921875 18.4395Z" fill="#9B6F10"/>
<g clip-path="url(#clip0_4679_55115)">
<path d="M21.0697 8.33388C21.1283 8.34582 21.1283 8.34582 21.188 8.358C21.4437 8.41196 21.6943 8.47811 21.9447 8.55263C22.0052 8.57054 22.0052 8.57054 22.0669 8.58882C23.5541 9.03805 24.9233 9.76803 26.101 10.7839C26.1336 10.8116 26.1662 10.8394 26.1997 10.868C26.7906 11.3847 27.345 11.9425 27.8072 12.5776C27.8447 12.6279 27.8822 12.6782 27.9197 12.7285C28.184 13.0869 28.419 13.4591 28.6385 13.8464C28.6558 13.8766 28.6732 13.9069 28.6911 13.938C29.519 15.393 30.0346 17.1239 30.0489 18.8036C30.0493 18.8455 30.0497 18.8873 30.0502 18.9304C30.0575 19.831 30.0571 20.7062 29.8635 21.5901C29.8494 21.6563 29.8494 21.6563 29.835 21.7239C29.4756 23.3782 28.7748 24.9428 27.7197 26.2714C27.6899 26.3096 27.6602 26.3477 27.6295 26.3871C25.8964 28.563 25.8964 28.563 25.013 28.6966C24.7241 28.697 24.535 28.6877 24.3072 28.5026C24.1425 28.2914 24.1054 28.1284 24.1187 27.8618C24.161 27.5393 24.3726 27.3804 24.6135 27.1901C24.6805 27.1391 24.7474 27.088 24.8146 27.0371C25.1295 26.7985 25.4214 26.544 25.7072 26.2714C25.7391 26.2413 25.771 26.2111 25.8039 26.1801C26.4152 25.5882 26.9071 24.8647 27.326 24.1276C27.3407 24.1024 27.3554 24.0772 27.3705 24.0512C28.6259 21.8918 28.8518 19.2231 28.2402 16.8317C28.0539 16.1389 27.7971 15.4807 27.4581 14.8485C27.4283 14.7928 27.3988 14.7368 27.3696 14.6807C26.9997 13.9684 26.5212 13.3341 25.9697 12.7526C25.9193 12.6936 25.8692 12.6344 25.8193 12.5749C24.3287 10.8743 21.8986 9.83442 19.6762 9.65868C17.211 9.50565 14.795 10.1621 12.8447 11.7026C12.8053 11.7335 12.766 11.7644 12.7254 11.7963C12.282 12.1515 11.8471 12.529 11.4885 12.9714C11.4491 13.0184 11.4097 13.0655 11.3704 13.1125C9.70522 15.124 8.91016 17.7381 9.14766 20.3373C9.42936 22.8586 10.6387 25.1981 12.5822 26.8401C12.7287 26.9567 12.8783 27.0686 13.0294 27.179C13.2183 27.3323 13.3536 27.4764 13.3801 27.7254C13.3882 27.9976 13.3608 28.1528 13.1947 28.3714C13.009 28.5317 12.8262 28.603 12.5822 28.5901C12.3447 28.5399 12.1918 28.4561 12.0025 28.3058C11.9782 28.2865 11.9538 28.2673 11.9287 28.2474C11.7228 28.0826 11.527 27.9072 11.334 27.7274C11.2443 27.6446 11.153 27.5661 11.0592 27.4882C9.05526 25.7337 7.84534 22.9418 7.63846 20.3214C7.63215 20.1785 7.63032 20.0359 7.62957 19.8929C7.62926 19.8535 7.62895 19.8141 7.62864 19.7736C7.61871 18.1368 7.61871 18.1368 7.76971 17.3901C7.7824 17.3245 7.7824 17.3245 7.79534 17.2576C8.1551 15.4375 8.92623 13.7599 10.0885 12.3151C10.108 12.2904 10.1276 12.2657 10.1478 12.2402C10.6396 11.6222 11.2086 11.0422 11.8385 10.5651C11.8898 10.5247 11.9411 10.4842 11.9924 10.4436C13.4211 9.32865 15.1032 8.64546 16.8697 8.29013C16.9085 8.28215 16.9472 8.27418 16.9872 8.26597C18.2866 8.01199 19.7781 8.06596 21.0697 8.33388Z" fill="#CACACA"/>
<path d="M22.9483 11.7019C23.0243 11.7415 23.0243 11.7415 23.1018 11.7819C23.7636 12.1407 24.3341 12.6245 24.8733 13.1456C24.905 13.175 24.9366 13.2044 24.9692 13.2347C26.2322 14.4365 26.9966 16.2096 27.2358 17.9144C27.24 17.9438 27.2442 17.9732 27.2485 18.0035C27.2859 18.2969 27.2892 18.5896 27.2905 18.8851C27.2919 18.9605 27.2919 18.9605 27.2933 19.0374C27.2954 19.4974 27.2954 19.4974 27.1483 19.7081C26.9689 19.8781 26.811 19.9593 26.5659 19.987C26.3091 19.9609 26.1258 19.8705 25.9479 19.6835C25.8432 19.5201 25.8284 19.3872 25.8186 19.1972C25.7186 17.4632 25.2797 15.9269 24.1296 14.5894C24.0937 14.5477 24.0578 14.5059 24.0209 14.4629C22.9091 13.1972 21.2629 12.3643 19.5796 12.2269C17.5233 12.1442 15.6973 12.7098 14.16 14.1081C12.8255 15.3584 12.1143 17.1401 12.046 18.9507C12.0446 18.9842 12.0432 19.0177 12.0418 19.0522C12.0395 19.1154 12.0379 19.1787 12.0373 19.242C12.0301 19.4597 11.9706 19.5829 11.8358 19.7519C11.6417 19.9271 11.4965 19.9868 11.2317 19.9829C11.0051 19.9539 10.8344 19.8467 10.6792 19.6835C10.3062 19.1017 10.5833 17.9289 10.7211 17.2827C10.9004 16.4896 11.1894 15.7423 11.5733 15.0269C11.5997 14.9762 11.6261 14.9256 11.6533 14.8734C12.0122 14.2115 12.4962 13.6414 13.0171 13.1019C13.0432 13.0735 13.0694 13.045 13.0964 13.0158C13.504 12.5837 14.0187 12.2425 14.5173 11.9247C14.583 11.8827 14.6482 11.8399 14.7132 11.7969C17.1651 10.2604 20.4522 10.3624 22.9483 11.7019Z" fill="#CACACA"/>
<path d="M15.1144 16.9807C15.1507 16.9967 15.1869 17.0126 15.2242 17.029C15.3393 17.0797 15.4541 17.131 15.5689 17.1824C15.6454 17.2162 15.7219 17.25 15.7985 17.2837C16.1705 17.448 16.5417 17.6144 16.9114 17.784C16.9244 17.7566 16.9374 17.7293 16.9508 17.7011C17.1744 17.2728 17.7581 17.0354 18.1906 16.8985C18.8966 16.7038 19.6502 16.7862 20.2911 17.1359C20.9294 17.5342 21.3734 18.0927 21.5872 18.8176C21.7589 19.5963 21.6092 20.3445 21.1989 21.0215C21.0785 21.18 20.9479 21.3205 20.8052 21.459C20.7773 21.4872 20.7495 21.5155 20.7208 21.5446C20.2117 22.0293 19.5227 22.202 18.8364 22.2027C18.1246 22.1567 17.4405 21.8592 16.9483 21.3378C16.7988 21.1569 16.677 20.9629 16.5614 20.759C16.535 20.7126 16.535 20.7126 16.5081 20.6653C16.2707 20.1942 16.2455 19.657 16.2552 19.1402C16.0562 19.0523 15.8571 18.9645 15.6581 18.8767C15.5907 18.8469 15.5234 18.8172 15.456 18.7874C15.3906 18.7586 15.3252 18.7297 15.2597 18.7008C15.194 18.6718 15.1284 18.6427 15.0627 18.6136C14.8992 18.5412 14.7352 18.4701 14.57 18.4016C14.5383 18.3883 14.5067 18.3751 14.4742 18.3614C14.4149 18.3365 14.3554 18.3121 14.2957 18.2882C14.0564 18.1871 13.9074 18.0517 13.7696 17.8332C13.6861 17.6134 13.6977 17.4547 13.7669 17.2316C13.8839 17.0211 14.0211 16.9084 14.2372 16.8051C14.5588 16.7407 14.8261 16.8506 15.1144 16.9807Z" fill="#CACACA"/>
</g>
<defs>
<clipPath id="clip0_4679_55115">
<rect width="22.4" height="22.4" fill="white" transform="translate(7.64062 7.24023)"/>
</clipPath>
</defs>
</svg>
