<svg width="35" height="34" viewBox="0 0 35 34" fill="none" xmlns="http://www.w3.org/2000/svg">
<path d="M0.125 16.9697C0.125 7.59759 7.72259 0 17.0947 0C26.4668 0 34.0644 7.59759 34.0644 16.9697C34.0644 26.3418 26.4668 33.9394 17.0947 33.9394C7.72259 33.9394 0.125 26.3418 0.125 16.9697Z" fill="#142243"/>
<path d="M19.1423 9.74078C19.2034 9.75176 19.2034 9.75176 19.2659 9.76296C21.4795 10.1635 23.5266 11.2294 25.1439 12.7871C25.1889 12.8302 25.1889 12.8302 25.2347 12.8742C25.6661 13.2899 26.0635 13.7126 26.417 14.1965C26.456 14.2489 26.495 14.3012 26.534 14.3535C26.8085 14.7259 27.0532 15.1125 27.2808 15.5151C27.2991 15.5472 27.3174 15.5794 27.3362 15.6125C27.9995 16.7905 28.4287 18.0919 28.6448 19.4252C28.6502 19.4578 28.6555 19.4904 28.661 19.524C28.7314 19.9786 28.748 20.4349 28.7557 20.8944C28.7572 20.9478 28.7588 21.0013 28.7604 21.0563C28.7608 21.132 28.7608 21.132 28.7612 21.2093C28.7618 21.2543 28.7624 21.2993 28.763 21.3457C28.7235 21.5279 28.6594 21.5904 28.5084 21.6986C28.3674 21.7309 28.2307 21.7305 28.0864 21.7288C28.0459 21.729 28.0054 21.7292 27.9637 21.7294C27.8782 21.7296 27.7928 21.7291 27.7073 21.7282C27.5768 21.727 27.4464 21.7282 27.3158 21.7296C27.2326 21.7295 27.1495 21.7292 27.0663 21.7288C27.0274 21.7292 26.9885 21.7297 26.9484 21.7301C26.7487 21.7262 26.6683 21.7174 26.5061 21.5901C26.4093 21.461 26.3861 21.4031 26.3885 21.2439C26.388 21.2064 26.3874 21.1689 26.3868 21.1302C26.4344 20.951 26.4894 20.894 26.6443 20.7892C26.8392 20.7614 27.0305 20.7679 27.2268 20.775C27.3066 20.7766 27.3066 20.7766 27.388 20.7781C27.5191 20.7808 27.65 20.7845 27.781 20.7892C27.7094 20.0176 27.6066 19.2677 27.4172 18.5159C27.4089 18.4821 27.4006 18.4483 27.3921 18.4135C27.177 17.5549 26.8052 16.2679 26.1442 15.6515C26.1145 15.6686 26.0849 15.6856 26.0544 15.7033C25.9642 15.7553 25.874 15.8073 25.7838 15.8594C25.6781 15.9203 25.5724 15.9813 25.4668 16.0423C25.2174 16.1861 24.9681 16.33 24.7187 16.4737C24.6401 16.5191 24.5614 16.5645 24.4827 16.6098C24.3846 16.6664 24.2865 16.723 24.1883 16.7795C23.8697 16.9633 23.5518 17.1482 23.2343 17.3337C23.2466 17.3629 23.259 17.3921 23.2717 17.4222C23.7571 18.579 24.0983 19.7073 24.1209 20.9682C24.1223 21.0149 24.1237 21.0615 24.1251 21.1095C24.1252 21.3237 24.123 21.4359 23.9973 21.6146C23.8269 21.7277 23.7235 21.7311 23.5243 21.7208C23.3553 21.6861 23.2849 21.6107 23.1888 21.4712C23.1493 21.3157 23.1348 21.1633 23.1254 21.0034C23.0458 19.7793 22.7887 18.641 22.1885 17.5611C22.1737 17.5344 22.1589 17.5077 22.1437 17.4802C21.982 17.1889 21.982 17.1889 21.793 16.9153C21.7339 16.8336 21.7339 16.8336 21.7339 16.7427C21.4907 16.9516 21.256 17.1668 21.0269 17.3911C20.9948 17.4224 20.9626 17.4537 20.9295 17.486C20.6369 17.7716 20.3458 18.0588 20.0551 18.3464C19.8602 18.5391 19.6648 18.7314 19.4683 18.9225C19.2775 19.1081 19.088 19.2949 18.8993 19.4826C18.8273 19.5537 18.7549 19.6245 18.6821 19.6948C18.5805 19.7929 18.4806 19.8925 18.3809 19.9926C18.3506 20.0213 18.3202 20.0499 18.2889 20.0794C18.2081 20.1625 18.1471 20.2301 18.0965 20.3346C18.0999 20.482 18.1396 20.6054 18.1875 20.7438C18.2701 21.5502 18.1459 22.3044 17.6387 22.9562C17.1763 23.4902 16.5703 23.9181 15.8465 23.9819C15.0033 24.0191 14.2851 23.8888 13.6294 23.3212C13.1202 22.837 12.7479 22.2281 12.7162 21.5105C12.7021 20.6444 12.8771 19.945 13.4889 19.3016C14.0431 18.7614 14.6867 18.4982 15.4566 18.5045C15.4992 18.5042 15.5419 18.5038 15.5858 18.5034C15.628 18.5036 15.6702 18.5037 15.7136 18.5038C15.7698 18.504 15.7698 18.504 15.8271 18.5041C15.9596 18.5159 15.9596 18.5159 16.049 18.548C16.1605 18.5855 16.2509 18.606 16.3688 18.6068C16.5193 18.5297 16.6245 18.4149 16.7401 18.293C16.7746 18.2586 16.8092 18.2242 16.8448 18.1887C16.9588 18.0747 17.0708 17.9589 17.1829 17.8431C17.2616 17.7636 17.3405 17.6842 17.4194 17.6048C17.6268 17.3958 17.8326 17.1852 18.0382 16.9744C18.248 16.7598 18.4594 16.5467 18.6705 16.3335C18.9781 16.0223 19.2853 15.7107 19.591 15.3977C19.6233 15.3647 19.6557 15.3318 19.689 15.2978C19.7183 15.2677 19.7477 15.2376 19.7779 15.2066C19.8034 15.1804 19.829 15.1542 19.8554 15.1272C19.9198 15.0611 19.9198 15.0611 19.9607 14.9695C19.9277 14.9574 19.8947 14.9453 19.8607 14.9329C19.7329 14.8784 19.6294 14.8142 19.5145 14.7364C18.8363 14.2991 18.098 13.9979 17.3179 13.7987C17.2827 13.7897 17.2475 13.7806 17.2112 13.7713C16.63 13.6304 16.0549 13.5869 15.4595 13.5884C15.4074 13.5884 15.4074 13.5884 15.3542 13.5884C14.7671 13.5901 14.2112 13.6408 13.6408 13.7873C13.6063 13.7958 13.5718 13.8044 13.5363 13.8131C13.0486 13.9358 12.5929 14.1152 12.1404 14.3329C12.1097 14.3474 12.079 14.362 12.0474 14.3769C11.0399 14.8591 10.1332 15.579 9.45783 16.4699C9.41946 16.5175 9.38103 16.5651 9.34256 16.6127C8.52403 17.6485 8.08757 18.8659 7.86649 20.1527C7.85787 20.1978 7.84926 20.2428 7.84038 20.2893C7.80959 20.5059 7.80488 20.7238 7.79749 20.9423C7.78637 21.1916 7.76452 21.4043 7.61571 21.6137C7.44837 21.7394 7.29946 21.7255 7.09515 21.7243C7.03579 21.7247 7.0358 21.7247 6.97524 21.7252C6.89166 21.7255 6.80808 21.7253 6.7245 21.7248C6.59683 21.7241 6.46932 21.7257 6.34166 21.7274C6.26035 21.7275 6.17904 21.7274 6.09772 21.7272C6.05969 21.7278 6.02165 21.7284 5.98246 21.729C5.79055 21.7259 5.70608 21.7145 5.54625 21.599C5.44589 21.4557 5.42847 21.3901 5.42975 21.2172C5.42976 21.168 5.42977 21.1187 5.42978 21.0679C5.43118 21.0153 5.43258 20.9627 5.43401 20.9086C5.43527 20.8266 5.43527 20.8266 5.43656 20.7429C5.45732 19.8752 5.60282 19.0363 5.82048 18.1976C5.83025 18.1598 5.84003 18.1221 5.8501 18.0832C6.57062 15.6969 7.03825 15.0931 7.37932 14.934C7.58386 14.8658 7.71219 14.989 7.84091 15.1229C7.96964 15.2568 7.95809 15.358 7.95742 15.5378C7.93097 15.701 7.86674 15.8819 7.77982 16.0205C7.72248 16.1027 7.72248 16.1027 7.73009 16.1971C7.83234 16.2695 7.83234 16.2695 7.95742 16.3392C7.99962 16.3637 8.04182 16.3882 8.0853 16.4134C8.11812 16.432 8.15094 16.4507 8.18476 16.4699C8.20118 16.4482 8.21761 16.4265 8.23453 16.4041C8.95525 15.4557 9.71955 14.6685 10.6854 13.9692C10.6717 13.9463 10.6579 13.9233 10.6437 13.8997C10.5816 13.796 10.5199 13.6922 10.4581 13.5884C10.4364 13.5523 10.4147 13.5162 10.3924 13.479C10.3616 13.4271 10.3616 13.4271 10.3302 13.3742C10.3112 13.3423 10.2921 13.3104 10.2725 13.2775C10.2308 13.1963 10.2308 13.1963 10.2308 13.1053C10.1879 13.1398 10.1879 13.1398 10.1441 13.1749C9.78612 13.4467 9.78612 13.4467 9.58286 13.4577C9.36 13.4131 9.28898 13.3675 9.13956 13.1963C9.08457 13.0183 9.07687 12.9225 9.14418 12.7485C9.24898 12.5745 9.36881 12.4621 9.52319 12.3324C9.55285 12.3072 9.58252 12.2819 9.61309 12.256C10.2394 11.7338 10.9174 11.2979 11.6402 10.9229C11.6716 10.9064 11.7031 10.8899 11.7354 10.8729C12.1629 10.6489 12.5966 10.453 13.0497 10.2864C13.0944 10.2697 13.0944 10.2697 13.1401 10.2527C13.7619 10.0237 14.4012 9.87114 15.0503 9.74078C15.0908 9.73249 15.1313 9.72421 15.173 9.71567C16.4272 9.47238 17.8908 9.4965 19.1423 9.74078ZM15.9141 10.6046C15.9141 11.2648 15.9141 11.925 15.9141 12.6052C16.111 12.6296 16.308 12.654 16.5109 12.6791C17.4067 12.7989 18.223 13.0333 19.0544 13.3864C19.1589 13.4306 19.2641 13.4729 19.3696 13.5145C19.6283 13.0897 19.8796 12.6608 20.1283 12.2301C20.1569 12.1806 20.1855 12.1312 20.215 12.0802C20.3923 11.7726 20.5651 11.4628 20.7336 11.1503C20.2582 10.9854 19.7839 10.8506 19.29 10.7524C19.245 10.7434 19.1999 10.7344 19.1535 10.7251C19.0136 10.6983 18.8735 10.6737 18.7331 10.6501C18.6826 10.6415 18.6321 10.6328 18.5802 10.6239C18.1251 10.5539 17.6777 10.5466 17.2182 10.5498C17.0922 10.5507 16.9662 10.5508 16.8402 10.5507C16.7593 10.551 16.6783 10.5512 16.5974 10.5515C16.5415 10.5516 16.5415 10.5516 16.4846 10.5517C16.4319 10.5521 16.4319 10.5521 16.3782 10.5526C16.3325 10.5528 16.3325 10.5528 16.2859 10.5531C16.161 10.5608 16.0375 10.5841 15.9141 10.6046ZM11.0401 12.4297C11.0131 12.4576 10.9861 12.4855 10.9582 12.5143C11.0469 12.6727 11.1361 12.8308 11.2254 12.9888C11.2506 13.034 11.2759 13.0791 11.3019 13.1257C11.3262 13.1686 11.3505 13.2115 11.3756 13.2558C11.398 13.2955 11.4204 13.3353 11.4434 13.3763C11.4966 13.475 11.4966 13.475 11.5948 13.5145C11.7173 13.4635 11.836 13.4096 11.9557 13.3526C12.9412 12.9011 13.9307 12.7316 15.0048 12.6052C15.0048 11.99 15.0048 11.3749 15.0048 10.741C13.825 10.741 11.89 11.603 11.0401 12.4297ZM21.5975 11.5595C21.5294 11.6623 21.4678 11.7649 21.4071 11.872C21.378 11.9225 21.378 11.9225 21.3483 11.9739C21.3044 12.0501 21.2607 12.1264 21.2171 12.2027C21.1354 12.3452 21.0531 12.4873 20.9707 12.6293C20.7046 13.0885 20.4404 13.5478 20.188 14.0147C20.4356 14.1722 20.4356 14.1722 20.6881 14.3329C20.7332 14.2842 20.7782 14.2354 20.8245 14.1852C21.0917 13.918 21.3718 13.8047 21.7452 13.776C22.079 13.7982 22.404 13.9094 22.6432 14.1511C22.877 14.4841 22.9622 14.8046 22.8999 15.2114C22.8176 15.5634 22.6212 15.7608 22.3704 16.0152C22.4754 16.1802 22.5805 16.3453 22.6887 16.5153C23.1904 16.2565 23.6776 15.975 24.1644 15.6893C24.4824 15.5027 24.8017 15.3183 25.1212 15.1343C25.1738 15.1039 25.2265 15.0736 25.2791 15.0432C25.4007 14.9732 25.5224 14.9031 25.644 14.8331C25.1533 14.0689 24.4543 13.3801 23.7344 12.8325C23.7103 12.8138 23.6863 12.7951 23.6614 12.7758C22.7026 11.978 22.7026 11.978 21.5975 11.5595ZM20.7241 15.606C20.664 15.6656 20.604 15.7253 20.5439 15.7849C20.3479 15.9795 20.1521 16.1743 19.9564 16.3692C19.923 16.4024 19.8897 16.4356 19.8553 16.4698C19.5406 16.7831 19.2261 17.0965 18.9117 17.4101C18.5101 17.8106 18.1082 18.2107 17.7055 18.6101C17.422 18.8915 17.139 19.1734 16.8564 19.4557C16.6877 19.6241 16.5188 19.7924 16.3493 19.9601C16.1902 20.1175 16.0317 20.2756 15.8737 20.4342C15.8156 20.4923 15.7572 20.5502 15.6986 20.6078C15.6188 20.6865 15.5398 20.7659 15.461 20.8455C15.4375 20.8682 15.4141 20.8909 15.3899 20.9143C15.2787 21.0285 15.2339 21.0947 15.2121 21.2546C15.2205 21.3865 15.2205 21.3865 15.3231 21.4712C15.4516 21.4989 15.4516 21.4989 15.5959 21.4712C15.6996 21.3941 15.7809 21.3227 15.87 21.2311C15.8962 21.2053 15.9224 21.1794 15.9494 21.1528C16.0371 21.066 16.1237 20.9783 16.2104 20.8905C16.273 20.8281 16.3357 20.7658 16.3985 20.7035C16.5687 20.5341 16.7381 20.3638 16.9074 20.1934C17.0845 20.0152 17.2623 19.8378 17.44 19.6603C17.7383 19.362 18.0361 19.0633 18.3335 18.7641C18.6776 18.4182 19.0224 18.073 19.3677 17.7282C19.6997 17.3968 20.0311 17.0649 20.3623 16.7327C20.5033 16.5912 20.6445 16.4499 20.7859 16.3087C20.9523 16.1425 21.1182 15.9759 21.2838 15.8089C21.3447 15.7476 21.4057 15.6865 21.4669 15.6255C21.5504 15.5424 21.6332 15.4587 21.7159 15.3749C21.7404 15.3508 21.7648 15.3266 21.79 15.3018C21.9206 15.1681 22.0022 15.0696 22.0067 14.8785C21.9318 14.7696 21.9318 14.7696 21.8248 14.6967C21.4365 14.6967 20.9947 15.3367 20.7241 15.606ZM7.22995 17.0609C6.75363 18.255 6.39026 19.4904 6.41155 20.7892C6.54659 20.7892 6.68162 20.7892 6.82075 20.7892C6.82516 20.7471 6.82516 20.7471 6.82967 20.7042C6.95771 19.5149 7.23085 18.4239 7.73009 17.3337C7.65533 17.2882 7.58048 17.2427 7.5056 17.1973C7.46392 17.172 7.42225 17.1467 7.37932 17.1206C7.28882 17.0572 7.28882 17.0572 7.22995 17.0609ZM14.013 20.1641C13.6905 20.6104 13.6338 21.0718 13.6862 21.6076C13.7889 22.0978 14.0838 22.4765 14.4853 22.7667C14.9389 23.0486 15.4491 23.0954 15.9665 22.9871C16.4315 22.8364 16.7963 22.5219 17.0508 22.1078C17.2007 21.8008 17.2549 21.5383 17.2327 21.1984C17.0591 21.3422 16.8947 21.488 16.7386 21.6506C16.7086 21.6817 16.6787 21.7128 16.6478 21.7449C16.5868 21.8087 16.5262 21.8729 16.4659 21.9374C16.2144 22.1969 15.9748 22.3495 15.6145 22.4063C15.2216 22.4059 14.9148 22.354 14.613 22.0886C14.3353 21.7829 14.3067 21.4946 14.2958 21.0981C14.3732 20.6037 14.6918 20.3006 15.0417 19.968C15.1294 19.8833 15.2167 19.7984 15.304 19.7135C15.3426 19.6766 15.3812 19.6397 15.4209 19.6017C15.5102 19.5307 15.5102 19.5307 15.5049 19.4707C14.8837 19.4299 14.4084 19.6948 14.013 20.1641Z" fill="#CACACA"/>
</svg>
