<svg width="37" height="37" viewBox="0 0 37 37" fill="none" xmlns="http://www.w3.org/2000/svg">
<path d="M0.921875 18.8399C0.921875 8.94298 8.94493 0.919922 18.8419 0.919922C28.7388 0.919922 36.7619 8.94298 36.7619 18.8399C36.7619 28.7369 28.7388 36.7599 18.8419 36.7599C8.94493 36.7599 0.921875 28.7369 0.921875 18.8399Z" fill="#1C3266"/>
<g clip-path="url(#clip0_4914_63190)">
<path d="M19.393 4.71224C19.4072 4.71574 19.4213 4.71923 19.4359 4.72283C19.9978 4.86412 20.4997 5.14106 20.9178 5.54126C20.926 5.54896 20.9342 5.55667 20.9426 5.56461C21.0842 5.69827 21.2043 5.84196 21.3175 6.00018C21.3242 6.00935 21.3308 6.01852 21.3376 6.02797C21.7348 6.58158 21.9127 7.25071 21.9115 7.92583C21.9115 7.95126 21.9115 7.97669 21.9116 8.00211C21.9116 8.07189 21.9116 8.14167 21.9115 8.21144C21.9114 8.28739 21.9115 8.36333 21.9115 8.43928C21.9115 8.57235 21.9115 8.70542 21.9115 8.83849C21.9114 9.03635 21.9114 9.23422 21.9114 9.43209C21.9114 9.76494 21.9113 10.0978 21.9113 10.4306C21.9112 10.7602 21.9111 11.0898 21.9111 11.4194C21.9111 11.4296 21.9111 11.4399 21.9111 11.4504C21.9111 11.5439 21.9111 11.6375 21.9111 11.731C21.9111 11.9635 21.9111 12.196 21.911 12.4284C21.911 12.439 21.911 12.4496 21.911 12.4605C21.911 12.9753 21.9109 13.4901 21.9108 14.0049C21.9108 14.1836 21.9107 14.3622 21.9107 14.5408C21.9107 14.5574 21.9107 14.5574 21.9107 14.5744C21.9106 15.0895 21.9105 15.6046 21.9105 16.1198C21.9105 16.1532 21.9105 16.1867 21.9105 16.2201C21.9105 16.4418 21.9105 16.6634 21.9104 16.8851C21.9104 17.3261 21.9104 17.7671 21.9103 18.2082C21.9103 18.2292 21.9103 18.2502 21.9103 18.2712C21.9102 19.5394 21.91 20.8076 21.9097 22.462C21.9189 22.4665 21.9281 22.4711 21.9376 22.4757C21.9906 22.5026 22.0379 22.5379 22.0864 22.5721C22.0976 22.58 22.1088 22.5879 22.1203 22.596C22.2134 22.6626 22.3005 22.734 22.3865 22.8096C22.4063 22.8264 22.4266 22.8428 22.447 22.8589C22.5627 22.9505 22.6667 23.0516 22.7706 23.1562C22.7997 23.1855 22.829 23.2146 22.8583 23.2438C22.9635 23.3488 23.0614 23.4553 23.1532 23.5723C23.1692 23.5916 23.1854 23.6109 23.2015 23.6301C23.324 23.7769 23.4336 23.9304 23.5381 24.0904C23.546 24.1024 23.5538 24.1144 23.5619 24.1268C24.1676 25.0584 24.4884 26.1529 24.4892 27.2631C24.4893 27.2818 24.4893 27.2818 24.4893 27.301C24.4875 28.7068 23.967 30.0708 23.0348 31.1222C23.0226 31.1361 23.0104 31.1499 22.9979 31.1642C22.8285 31.3527 22.6512 31.5443 22.4506 31.6999C22.415 31.7276 22.3809 31.7567 22.3469 31.7864C22.0705 32.0262 21.7581 32.2204 21.4367 32.3937C21.4092 32.4086 21.382 32.424 21.3549 32.4394C20.7611 32.7711 20.0781 32.9576 19.4078 33.0467C19.393 33.0488 19.393 33.0488 19.3779 33.0509C19.1486 33.0821 18.9191 33.0823 18.688 33.0819C18.678 33.0819 18.668 33.0819 18.6577 33.0819C18.3463 33.0816 18.0422 33.0736 17.735 33.0171C17.7143 33.0134 17.6936 33.0097 17.6729 33.006C16.7722 32.8437 15.8904 32.488 15.1717 31.9137C15.1454 31.8928 15.1188 31.8725 15.0919 31.8524C15.0003 31.7835 14.9133 31.7115 14.8295 31.6332C14.7982 31.6044 14.7665 31.5765 14.7342 31.5487C14.661 31.4848 14.5922 31.4167 14.5235 31.348C14.5104 31.3349 14.4973 31.3218 14.4838 31.3082C14.4071 31.2309 14.3345 31.1532 14.2677 31.0672C14.2415 31.0337 14.2137 31.0027 14.1849 30.9714C13.4961 30.2022 13.084 29.1554 12.9266 28.1476C12.925 28.1376 12.9234 28.1276 12.9218 28.1173C12.8924 27.9269 12.877 27.7416 12.8764 27.5489C12.8763 27.5389 12.8763 27.5289 12.8762 27.5186C12.876 27.4656 12.8759 27.4125 12.8758 27.3595C12.8757 27.3166 12.8755 27.2737 12.8752 27.2307C12.8724 26.866 12.8983 26.5111 12.97 26.1528C12.9722 26.1417 12.9744 26.1307 12.9766 26.1193C13.204 24.9747 13.7872 23.9563 14.6047 23.1323C14.6256 23.1112 14.6464 23.0901 14.6672 23.069C14.7575 22.9786 14.852 22.8969 14.9519 22.8173C14.9671 22.8045 14.9823 22.7917 14.9973 22.7787C15.2839 22.5328 15.2839 22.5328 15.4256 22.462C15.4256 22.4492 15.4256 22.4365 15.4256 22.4233C15.4262 21.1269 15.4269 19.8305 15.428 18.2527C15.428 18.2317 15.428 18.2108 15.428 18.1898C15.4283 17.7492 15.4287 17.3087 15.429 16.8682C15.4292 16.6469 15.4293 16.4256 15.4295 16.2043C15.4295 16.1709 15.4295 16.1375 15.4296 16.1042C15.4299 15.5904 15.4303 15.0767 15.4305 14.563C15.4305 14.552 15.4305 14.5409 15.4305 14.5295C15.4306 14.3516 15.4307 14.1737 15.4308 13.9958C15.431 13.483 15.4312 12.9702 15.4316 12.4574C15.4316 12.4468 15.4317 12.4363 15.4317 12.4254C15.4318 12.1936 15.432 11.9618 15.4322 11.73C15.4323 11.6367 15.4324 11.5434 15.4325 11.4501C15.4325 11.4399 15.4325 11.4297 15.4325 11.4192C15.4328 11.0908 15.4329 10.7625 15.433 10.4341C15.4331 10.0938 15.4333 9.75354 15.4337 9.41324C15.4339 9.21723 15.434 9.02122 15.434 8.8252C15.4339 8.69405 15.4341 8.5629 15.4343 8.43175C15.4345 8.35716 15.4345 8.28257 15.4344 8.20798C15.4331 7.35714 15.5789 6.54138 16.1362 5.86694C16.1484 5.85171 16.1607 5.83648 16.1733 5.82079C16.3405 5.61519 16.529 5.43092 16.7432 5.27479C16.7579 5.2638 16.7727 5.25281 16.7879 5.24148C17.1404 4.9878 17.5359 4.81466 17.9571 4.71224C17.9703 4.70892 17.9836 4.7056 17.9972 4.70218C18.4271 4.59964 18.9653 4.60091 19.393 4.71224ZM17.3967 6.44417C17.3649 6.4739 17.3649 6.4739 17.3279 6.50264C17.2609 6.55785 17.2109 6.62786 17.1577 6.69595C17.1477 6.70849 17.1377 6.72103 17.1274 6.73395C16.8492 7.09763 16.754 7.52365 16.7577 7.97375C16.7578 8.00011 16.758 8.02646 16.7581 8.05282C16.7585 8.11022 16.7588 8.16761 16.7593 8.22501C16.7599 8.31908 16.7605 8.41315 16.761 8.50722C16.7619 8.64555 16.7627 8.78389 16.7636 8.92222C16.766 9.28631 16.768 9.6504 16.77 10.0145C16.7702 10.0554 16.7705 10.0963 16.7707 10.1373C16.7744 10.7898 16.7772 11.4424 16.7792 12.095C16.7793 12.1278 16.7794 12.1607 16.7795 12.1935C16.7809 12.6305 16.7822 13.0675 16.7833 13.5045C16.784 13.7583 16.7847 14.0121 16.7854 14.2659C16.7855 14.3007 16.7856 14.3356 16.7857 14.3704C16.7872 14.9064 16.7893 15.4425 16.7929 15.9785C16.7929 15.99 16.793 16.0015 16.7931 16.0134C16.7943 16.1991 16.7956 16.3849 16.7969 16.5706C16.8007 17.106 16.8041 17.6414 16.8052 18.1768C16.8053 18.1878 16.8053 18.1988 16.8053 18.2102C16.8058 18.4522 16.8062 18.6942 16.8064 18.9363C16.8065 19.0337 16.8066 19.1311 16.8067 19.2285C16.8067 19.2444 16.8067 19.2444 16.8067 19.2608C16.8072 19.6035 16.8096 19.9461 16.8131 20.2888C16.8167 20.6439 16.8181 20.9989 16.8168 21.3541C16.8162 21.5407 16.8167 21.7271 16.82 21.9137C16.84 23.0777 16.84 23.0777 16.6442 23.2995C16.5106 23.4259 16.3559 23.4961 16.1843 23.5561C16.0627 23.6007 15.9675 23.6821 15.8697 23.7647C15.8521 23.7793 15.8344 23.7938 15.8166 23.8083C15.6241 23.9662 15.438 24.1366 15.2776 24.3273C15.2708 24.3353 15.2641 24.3433 15.2571 24.3516C14.4838 25.2755 14.0989 26.4487 14.1896 27.6512C14.2681 28.5229 14.5883 29.3533 15.1295 30.0415C15.1469 30.0636 15.1469 30.0636 15.1646 30.0862C15.367 30.3383 15.5973 30.5855 15.8549 30.7817C15.8771 30.7993 15.8771 30.7993 15.8997 30.8173C16.0861 30.9646 16.2854 31.0931 16.4915 31.211C16.5056 31.2191 16.5056 31.2191 16.52 31.2274C17.5622 31.8179 18.8106 31.9063 19.9526 31.5946C20.5133 31.4358 21.0441 31.1492 21.4952 30.7817C21.5101 30.7698 21.525 30.7579 21.5404 30.7457C21.6621 30.6463 21.7734 30.5362 21.8847 30.4255C21.8923 30.418 21.8999 30.4105 21.9077 30.4028C22.009 30.3022 22.1028 30.1986 22.191 30.086C22.203 30.0707 22.203 30.0707 22.2153 30.0551C22.8316 29.2642 23.1723 28.2922 23.1708 27.289C23.1708 27.2769 23.1708 27.2648 23.1707 27.2523C23.1681 26.1703 22.7724 25.0868 22.032 24.2895C22.0031 24.2582 21.9752 24.2264 21.9476 24.194C21.8455 24.0767 21.7329 23.9681 21.6136 23.8684C21.5991 23.8558 21.5847 23.8432 21.5698 23.8302C21.4125 23.6959 21.2421 23.5808 21.07 23.4665C21.051 23.4538 21.0322 23.4408 21.0136 23.4275C20.9572 23.388 20.9035 23.3582 20.8392 23.3332C20.7441 23.2916 20.6665 23.2448 20.607 23.1578C20.5497 22.9785 20.5655 22.7792 20.5688 22.5933C20.5698 22.5141 20.5691 22.4349 20.5685 22.3556C20.5679 22.2168 20.5683 22.078 20.5695 21.9391C20.5714 21.7327 20.5714 21.5262 20.571 21.3198C20.5705 20.9724 20.5714 20.625 20.5732 20.2777C20.5749 19.9335 20.5759 19.5894 20.576 19.2452C20.576 19.2345 20.576 19.2238 20.576 19.2128C20.5761 19.1042 20.5761 18.9956 20.5762 18.8869C20.5762 18.6549 20.5764 18.4229 20.5766 18.1909C20.5766 18.1798 20.5766 18.1687 20.5766 18.1574C20.5771 17.6194 20.5787 17.0814 20.5804 16.5434C20.581 16.3568 20.5816 16.1701 20.5822 15.9835C20.5822 15.9719 20.5823 15.9604 20.5823 15.9484C20.584 15.4109 20.585 14.8733 20.5858 14.3358C20.5859 14.3009 20.5859 14.266 20.586 14.2311C20.5867 13.7278 20.5874 13.2245 20.588 12.7212C20.5881 12.6542 20.5882 12.5872 20.5883 12.5203C20.5883 12.5092 20.5883 12.4982 20.5883 12.4869C20.5884 12.4314 20.5884 12.376 20.5885 12.3205C20.5885 12.2984 20.5886 12.2763 20.5886 12.2542C20.5886 12.2378 20.5886 12.2378 20.5886 12.2211C20.5887 12.1552 20.5888 12.0893 20.5889 12.0234C20.5895 11.4955 20.5904 10.9677 20.592 10.4398C20.5922 10.3976 20.5923 10.3555 20.5924 10.3133C20.5924 10.3029 20.5925 10.2925 20.5925 10.2818C20.593 10.1281 20.5934 9.97436 20.5937 9.82062C20.5937 9.81072 20.5938 9.80083 20.5938 9.79063C20.594 9.68271 20.5943 9.5748 20.5945 9.46688C20.5949 9.26167 20.5955 9.05647 20.5964 8.85126C20.597 8.71408 20.5973 8.57691 20.5975 8.43973C20.5976 8.36164 20.5978 8.28355 20.5982 8.20546C20.6017 7.62224 20.5393 7.09829 20.148 6.63674C20.1417 6.62921 20.1354 6.62168 20.129 6.61392C19.825 6.25317 19.371 6.01342 18.9021 5.95941C18.3493 5.92395 17.8072 6.05391 17.3967 6.44417Z" fill="#CACACA"/>
<path d="M18.6253 11.8895C18.8278 11.8802 19.0194 11.9488 19.1748 12.077C19.324 12.2182 19.4333 12.4038 19.4423 12.6131C19.4422 12.627 19.4422 12.6409 19.4421 12.6553C19.4421 12.6715 19.4421 12.6876 19.442 12.7043C19.4419 12.722 19.4418 12.7396 19.4417 12.7578C19.4417 12.7768 19.4416 12.7957 19.4415 12.8152C19.4414 12.8569 19.4412 12.8985 19.441 12.9402C19.4407 13.0085 19.4405 13.0768 19.4402 13.145C19.4399 13.2455 19.4395 13.3459 19.4391 13.4463C19.4384 13.6097 19.4378 13.773 19.4373 13.9364C19.4372 13.9504 19.4372 13.9644 19.4372 13.9788C19.4369 14.0509 19.4367 14.123 19.4364 14.195C19.4362 14.2544 19.436 14.3138 19.4358 14.3732C19.4342 14.8397 19.4331 15.3061 19.4324 15.7726C19.4324 15.7883 19.4323 15.804 19.4323 15.8203C19.4318 16.129 19.4314 16.4376 19.431 16.7463C19.4307 16.9472 19.4304 17.148 19.4301 17.3488C19.4301 17.3738 19.4301 17.3738 19.43 17.3994C19.4292 17.94 19.4274 18.4807 19.4251 19.0214C19.4227 19.5772 19.4213 20.1331 19.4213 20.6889C19.4213 20.7674 19.4213 20.8459 19.4213 20.9245C19.4213 20.9399 19.4213 20.9554 19.4213 20.9713C19.4212 21.2199 19.42 21.4685 19.4183 21.7172C19.4167 21.9671 19.4163 22.217 19.417 22.467C19.4174 22.6155 19.4169 22.7639 19.4151 22.9124C19.414 23.0116 19.4141 23.1108 19.4151 23.2101C19.4157 23.2666 19.4157 23.323 19.4143 23.3796C19.4023 23.6046 19.4023 23.6046 19.4872 23.8036C19.5639 23.8724 19.6488 23.921 19.741 23.9661C19.7998 23.996 19.8528 24.0328 19.9067 24.0705C19.926 24.0834 19.9453 24.0963 19.9646 24.109C20.1355 24.2224 20.3061 24.3361 20.4759 24.4509C20.4904 24.4607 20.5049 24.4704 20.5199 24.4805C20.6129 24.5435 20.7011 24.6107 20.7877 24.6822C20.7972 24.6901 20.8068 24.698 20.8166 24.7061C20.9671 24.8316 21.1057 24.961 21.2283 25.1147C21.2495 25.141 21.2711 25.1671 21.2932 25.1926C21.8435 25.8332 22.0623 26.717 22.0134 27.5457C21.9415 28.4385 21.5058 29.266 20.8281 29.8481C20.7576 29.9057 20.6844 29.9591 20.6101 30.0116C20.6013 30.018 20.5926 30.0244 20.5836 30.0309C20.0624 30.4099 19.4155 30.6121 18.7744 30.6334C18.7489 30.6343 18.7489 30.6343 18.7229 30.6352C17.8271 30.6511 16.9753 30.3028 16.3318 29.6859C16.32 29.6748 16.32 29.6748 16.308 29.6634C16.185 29.5462 16.0777 29.4224 15.9765 29.2862C15.9671 29.2738 15.9671 29.2738 15.9575 29.2612C15.85 29.1197 15.7623 28.9701 15.6804 28.8125C15.6747 28.8017 15.669 28.7908 15.6631 28.7796C15.2759 28.035 15.2019 27.1293 15.4437 26.3271C15.5955 25.8471 15.8247 25.4095 16.1695 25.0392C16.1963 25.0104 16.2214 24.9807 16.2466 24.9506C16.4882 24.6761 16.8049 24.4763 17.109 24.2788C17.166 24.2416 17.223 24.2043 17.28 24.1669C17.3009 24.1533 17.3009 24.1533 17.3221 24.1394C17.4626 24.0473 17.6015 23.953 17.7397 23.8574C17.7549 23.8469 17.7702 23.8364 17.7859 23.8256C17.799 23.8166 17.812 23.8075 17.8255 23.7982C17.8566 23.7792 17.8566 23.7792 17.8862 23.7792C17.8862 23.7695 17.8862 23.7598 17.8861 23.7498C17.8854 22.6937 17.8847 21.6376 17.8843 20.5816C17.8843 20.5658 17.8843 20.55 17.8843 20.5338C17.8841 20.191 17.884 19.8482 17.8839 19.5054C17.8838 19.3373 17.8838 19.1692 17.8837 19.001C17.8837 18.9843 17.8837 18.9676 17.8837 18.9504C17.8835 18.4081 17.8832 17.8658 17.8828 17.3235C17.8824 16.7662 17.8821 16.209 17.882 15.6517C17.882 15.573 17.882 15.4944 17.882 15.4157C17.8819 15.3924 17.8819 15.3924 17.8819 15.3687C17.8819 15.1193 17.8817 14.8699 17.8814 14.6206C17.8812 14.3699 17.8811 14.1192 17.8811 13.8685C17.8812 13.7196 17.8811 13.5706 17.8808 13.4217C17.8806 13.3221 17.8806 13.2226 17.8808 13.1231C17.8808 13.0664 17.8808 13.0097 17.8806 12.953C17.8804 12.8919 17.8805 12.8307 17.8807 12.7696C17.8806 12.7521 17.8805 12.7346 17.8803 12.7165C17.8818 12.4801 17.9535 12.29 18.117 12.118C18.2592 11.983 18.4296 11.905 18.6253 11.8895Z" fill="#CACACA"/>
<path d="M23.5982 7.53259C23.6253 7.53249 23.6253 7.53249 23.653 7.5324C23.6911 7.53231 23.7292 7.5323 23.7673 7.53237C23.8252 7.53241 23.883 7.53207 23.9409 7.53169C23.9781 7.53166 24.0153 7.53165 24.0525 7.53166C24.0781 7.53146 24.0781 7.53146 24.1042 7.53125C24.3251 7.53249 24.4976 7.58669 24.6588 7.73799C24.7833 7.86755 24.8352 8.00813 24.833 8.18656C24.8329 8.19954 24.8328 8.21252 24.8327 8.2259C24.8279 8.40907 24.7622 8.53096 24.6359 8.6612C24.4676 8.81901 24.2792 8.8444 24.0564 8.84423C24.0383 8.84429 24.0202 8.84436 24.0016 8.84442C23.9635 8.84451 23.9254 8.84451 23.8873 8.84445C23.8294 8.8444 23.7716 8.84475 23.7137 8.84512C23.6765 8.84516 23.6393 8.84517 23.6021 8.84515C23.585 8.84529 23.568 8.84543 23.5504 8.84557C23.3305 8.84433 23.1567 8.79038 22.9958 8.63987C22.9432 8.58362 22.9064 8.52367 22.8725 8.45488C22.8676 8.44534 22.8628 8.43579 22.8578 8.42596C22.7929 8.27895 22.803 8.11002 22.8549 7.96138C22.9255 7.78837 23.0497 7.66631 23.2147 7.58209C23.3402 7.53669 23.4659 7.53248 23.5982 7.53259Z" fill="#CACACA"/>
<path d="M23.4531 15.4986C23.4802 15.4983 23.4802 15.4983 23.5078 15.498C23.5369 15.4979 23.5369 15.4979 23.5666 15.4977C23.5816 15.4976 23.5816 15.4976 23.5969 15.4975C23.6498 15.4972 23.7027 15.497 23.7556 15.4969C23.8098 15.4967 23.8639 15.4962 23.918 15.4956C23.9601 15.4952 24.0021 15.4951 24.0442 15.495C24.0737 15.4949 24.1032 15.4945 24.1327 15.4941C24.3323 15.4946 24.502 15.5411 24.6501 15.6789C24.6956 15.7301 24.7331 15.7831 24.7685 15.8417C24.7752 15.8524 24.782 15.8631 24.7889 15.8741C24.8593 16.0115 24.8496 16.2088 24.8147 16.3556C24.7516 16.5179 24.6355 16.6577 24.4775 16.7342C24.3887 16.7706 24.3138 16.7909 24.2174 16.7918C24.1987 16.792 24.18 16.7922 24.1607 16.7924C24.1403 16.7925 24.12 16.7926 24.0996 16.7927C24.0892 16.7927 24.0789 16.7928 24.0682 16.7929C24.0134 16.7932 23.9586 16.7934 23.9038 16.7935C23.8476 16.7937 23.7914 16.7942 23.7353 16.7948C23.6917 16.7952 23.6481 16.7953 23.6046 16.7954C23.5839 16.7954 23.5632 16.7956 23.5425 16.7959C23.3304 16.7985 23.1673 16.7537 23.0069 16.6115C22.8802 16.4829 22.819 16.3247 22.8125 16.1455C22.818 15.9954 22.8609 15.8747 22.9476 15.7529C22.9646 15.7291 22.9646 15.7291 22.9819 15.7048C23.1086 15.5751 23.2723 15.5003 23.4531 15.4986Z" fill="#CACACA"/>
<path d="M23.5642 19.4778C23.5851 19.4777 23.6061 19.4777 23.627 19.4776C23.6707 19.4774 23.7143 19.4775 23.758 19.4776C23.8135 19.4778 23.8689 19.4775 23.9244 19.4771C23.9676 19.4768 24.0108 19.4768 24.054 19.4769C24.0744 19.4769 24.0948 19.4768 24.1153 19.4766C24.333 19.4749 24.5014 19.5254 24.663 19.6744C24.8087 19.8276 24.8341 20.0028 24.8308 20.2048C24.8239 20.3675 24.7465 20.4952 24.6334 20.6093C24.5069 20.7136 24.3652 20.7735 24.2013 20.7745C24.174 20.7748 24.174 20.7748 24.1461 20.775C24.1264 20.775 24.1066 20.7751 24.0869 20.7752C24.0718 20.7752 24.0718 20.7752 24.0565 20.7753C24.0033 20.7755 23.9502 20.7756 23.897 20.7757C23.8425 20.7758 23.7879 20.7761 23.7334 20.7766C23.6911 20.7768 23.6489 20.7769 23.6066 20.7769C23.5769 20.777 23.5471 20.7773 23.5173 20.7776C23.3278 20.7771 23.1566 20.7318 23.0119 20.6028C22.8709 20.4531 22.8108 20.2804 22.8125 20.0764C22.8249 19.8998 22.919 19.7344 23.0494 19.6175C23.2093 19.4979 23.3687 19.4772 23.5642 19.4778Z" fill="#CACACA"/>
<path d="M23.4643 11.5181C23.4817 11.518 23.4992 11.5178 23.5172 11.5176C23.5453 11.5174 23.5453 11.5174 23.574 11.5172C23.5935 11.5171 23.613 11.517 23.6331 11.5169C23.6743 11.5166 23.7156 11.5165 23.7569 11.5164C23.8092 11.5162 23.8615 11.5157 23.9139 11.5151C23.9546 11.5147 23.9953 11.5146 24.036 11.5146C24.0645 11.5145 24.093 11.5141 24.1215 11.5137C24.3385 11.5142 24.5069 11.5771 24.6667 11.7225C24.8129 11.8739 24.8351 12.0455 24.8319 12.245C24.8242 12.4175 24.7314 12.5548 24.6094 12.6708C24.4992 12.7636 24.3707 12.8101 24.2283 12.8113C24.1993 12.8116 24.1993 12.8116 24.1697 12.8119C24.1486 12.812 24.1275 12.8121 24.1064 12.8122C24.0904 12.8123 24.0904 12.8123 24.0741 12.8124C24.0174 12.8127 23.9608 12.8129 23.9042 12.8131C23.8461 12.8132 23.788 12.8137 23.7299 12.8143C23.6849 12.8147 23.6399 12.8148 23.5949 12.8149C23.5735 12.815 23.5521 12.8151 23.5307 12.8154C23.3243 12.8179 23.1576 12.7737 23.0036 12.631C22.8822 12.504 22.8163 12.3469 22.8125 12.1713C22.8204 11.9713 22.8891 11.8194 23.0355 11.6836C23.1575 11.5738 23.3006 11.5197 23.4643 11.5181Z" fill="#CACACA"/>
</g>
<defs>
<clipPath id="clip0_4914_63190">
<rect width="11.9467" height="28.4233" fill="white" transform="translate(12.875 4.65234)"/>
</clipPath>
</defs>
</svg>
