<?xml version="1.0" encoding="UTF-8"?>
<svg id="Layer_1" data-name="Layer 1" xmlns="http://www.w3.org/2000/svg" viewBox="0 0 149.25 149.25">
  <defs>
    <style>
      .cls-1, .cls-2, .cls-3, .cls-4 {
        stroke-width: 0px;
      }

      .cls-1, .cls-3 {
        fill: #c94933;
      }

      .cls-2, .cls-4 {
        fill: #fff;
      }

      .cls-3, .cls-4 {
        fill-rule: evenodd;
      }
    </style>
  </defs>
  <circle class="cls-1" cx="74.62" cy="74.62" r="74.62" transform="translate(-22.15 116.73) rotate(-68.51)"/>
  <path class="cls-3" d="m75.46,0c18.64.21,35.61,7.24,48.57,18.69l.21,34.36-9.24-.1c-1.59-6.1-3.37-11.94-5.39-17.54-1.98-5.57-4.62-10.64-7.88-15.18-3.18-4.39-7.07-7.93-11.7-10.57-4.63-2.63-10.31-4-17.09-4.08-7.12-.08-13.23,2.12-18.32,6.65-5.09,4.52-7.66,10.12-7.73,16.7-.08,6.93,1.47,12.65,4.66,17.22,3.18,4.58,7.84,8.37,13.96,11.36,5.44,2.68,10.8,5.05,16.09,7,5.29,1.98,10.39,4.12,15.33,6.33,4.48,2.01,8.81,4.3,12.94,6.81,4.13,2.55,7.72,5.48,10.76,8.82,3.35,3.81,5.8,7.96,7.37,12.44,1.57,4.48,2.32,9.69,2.25,15.66-.04,3.95-.5,7.7-1.35,11.25-7.55,7.99-16.83,14.31-27.25,18.36,1.92-2.19,3.39-4.7,4.44-7.56,1.19-3.34,1.81-7.18,1.86-11.53.07-6.35-1.67-12.34-5.19-17.88-3.56-5.55-8.9-9.8-15.99-12.73-4.87-2.02-10.43-4.24-16.71-6.69-6.29-2.42-11.69-4.71-16.25-6.88-9-4.18-15.95-9.57-20.84-16.21-4.93-6.64-7.34-15.29-7.22-25.88.07-6.12,1.36-11.77,3.93-17.01,2.29-4.77,5.47-9.05,9.51-12.87C49.97,3.11,62.34-.14,75.46,0h0Zm-18.98,147.01c-3.99-2.45-7.53-5.48-10.66-9.09-4.07-4.78-7.32-9.9-9.8-15.36-2.44-5.46-4.57-11.6-6.38-18.36l-9.24-.1.41,22.21c9.55,9.94,21.84,17.25,35.67,20.71Z"/>
  <path class="cls-3" d="m75.46,0c18.64.21,35.61,7.24,48.57,18.69l.21,34.36-9.24-.1c-1.59-6.1-3.37-11.94-5.39-17.54-1.98-5.57-4.62-10.64-7.88-15.18-3.18-4.39-7.07-7.93-11.7-10.57-4.63-2.63-10.31-4-17.09-4.08-7.12-.08-13.23,2.12-18.32,6.65-5.09,4.52-7.66,10.12-7.73,16.7-.08,6.93,1.47,12.65,4.66,17.22,3.18,4.58,7.84,8.37,13.96,11.36,5.44,2.68,10.8,5.05,16.09,7,5.29,1.98,10.39,4.12,15.33,6.33,4.48,2.01,8.81,4.3,12.94,6.81,4.13,2.55,7.72,5.48,10.76,8.82,3.35,3.81,5.8,7.96,7.37,12.44,1.57,4.48,2.32,9.69,2.25,15.66-.04,3.95-.5,7.7-1.35,11.25-7.55,7.99-16.83,14.31-27.25,18.36,1.92-2.19,3.39-4.7,4.44-7.56,1.19-3.34,1.81-7.18,1.86-11.53.07-6.35-1.67-12.34-5.19-17.88-3.56-5.55-8.9-9.8-15.99-12.73-4.87-2.02-10.43-4.24-16.71-6.69-6.29-2.42-11.69-4.71-16.25-6.88-9-4.18-15.95-9.57-20.84-16.21-4.93-6.64-7.34-15.29-7.22-25.88.07-6.12,1.36-11.77,3.93-17.01,2.29-4.77,5.47-9.05,9.51-12.87C49.97,3.11,62.34-.14,75.46,0h0Zm-18.98,147.01c-3.99-2.45-7.53-5.48-10.66-9.09-4.07-4.78-7.32-9.9-9.8-15.36-2.44-5.46-4.57-11.6-6.38-18.36l-9.24-.1.41,22.21c9.55,9.94,21.84,17.25,35.67,20.71Z"/>
  <path class="cls-4" d="m120.63,86.48c3.35,3.81,5.8,7.96,7.37,12.44,1.57,4.48,2.32,9.69,2.25,15.66-.04,3.95-.5,7.7-1.35,11.25-7.55,7.99-16.83,14.31-27.25,18.36,1.92-2.19,3.39-4.7,4.44-7.56,1.19-3.34,1.81-7.18,1.86-11.53.07-6.35-1.67-12.34-5.19-17.88-3.56-5.55-8.9-9.8-15.99-12.73-4.87-2.02-10.43-4.24-16.71-6.69-6.29-2.42-11.69-4.71-16.25-6.88-9-4.18-15.95-9.57-20.84-16.21-4.93-6.64-7.34-15.29-7.22-25.88.07-6.12,1.36-11.77,3.93-17.01,2.29-4.77,5.47-9.05,9.51-12.87C49.97,3.11,62.34-.14,75.46,0c18.64.21,35.61,7.24,48.57,18.69l.21,34.36-9.24-.1c-1.59-6.1-3.37-11.94-5.39-17.54-1.98-5.57-4.62-10.64-7.88-15.18-3.18-4.39-7.07-7.93-11.7-10.57-4.63-2.63-10.31-4-17.09-4.08-7.12-.08-13.23,2.12-18.32,6.65-5.09,4.52-7.66,10.12-7.73,16.7-.08,6.93,1.47,12.65,4.66,17.22,3.18,4.58,7.84,8.37,13.96,11.36,5.44,2.68,10.8,5.05,16.09,7,5.29,1.98,10.39,4.12,15.33,6.33,4.48,2.01,8.81,4.3,12.94,6.81,4.13,2.55,7.72,5.48,10.76,8.82h0ZM20.81,126.31c9.55,9.94,21.84,17.25,35.67,20.71-3.99-2.45-7.53-5.48-10.66-9.09-4.07-4.78-7.32-9.9-9.8-15.36-2.44-5.46-4.57-11.6-6.38-18.36l-9.24-.1.41,22.21Z"/>
  <g>
    <path class="cls-4" d="m57.34,12.35l13.08,4.7,16.59-5.47-29.67.77h0Zm81.14,23.65c.06.11.13.21.19.32l-12.39-10.44-2.39,5.48,2.82,3.07,13.75,5.03c.03.05.06.1.09.16l-13.66-5,5.66,6.17,7.55,6.14,2.34-3.5.06.13-2.3,3.45,5.37,4.36.07.21-5.5-4.47-.76,1.13,7.7,8.4.06.24-7.83-8.54-11.64,17.41,20.78-2.18.02.12-20.69,2.17,21.48,9.81v.13s-21.62-9.87-21.62-9.87l9.92,47.99,10.21-24.32c-.04.2-.08.39-.12.59l-9.99,23.81.55-.24c-.04.06-.07.12-.11.18l-.41.18.23.1-.06.1-.19-.08.11.21-.07.11-.09-.18v.3s-.1.17-.1.17v-.31s-.14.52-.14.52c-.06.1-.13.2-.19.3l.24-1.05-20.64,21.91c-.15.1-.3.2-.45.3l21.07-22.37-23.06-4.12-9.91,33.03s-.09.04-.14.06l9.93-33.11-28.15-5.03,13.25,40.08-.11.04-13.23-40.04-18.5,38.85,18.53,4.46c-.1.02-.2.03-.31.05l-18.18-4.38,3.2,5.09h-.14s-3.16-5.03-3.16-5.03l-.98,4.69h-.12s1-4.77,1-4.77l-15.85,1.56c-.09-.03-.18-.06-.27-.09l16.05-1.58-35.72-30.13,4.91,24.96-.14-.08-4.89-24.85-7.59,15.47-.09-.09,7.6-15.48-17.38,4.35-.07-.1,17.44-4.37-19.09-18.84.73,21.9-.12-.18-.73-21.83L.48,83.16c0-.06-.01-.12-.02-.18l11.64,11.49-.65-19.65-11.35-.7-.09.16c0-.1,0-.19,0-.29h.03s10.63-18.77,10.63-18.77l-8.72,6.52-1.61,5.8c.02-.23.05-.46.07-.69l1.38-4.99-.8.6c0-.06.02-.11.03-.17l.83-.62,5.19-18.72c.09-.2.19-.4.29-.6L2,61.56l8.79-6.58-1.99-15.53.1-.18,1.99,15.56,12.06-19.79-12.96,2.29.08-.13,12.97-2.29,1.59-2.62-14.49,4.78c.03-.05.06-.1.09-.15l14.5-4.78,6.26-10.29-20.28,14.26.15-.25,20.29-14.27h0s0,0,0,0h0s.01,0,.01,0l25.85-9.33h0s.01,0,.01,0l30.38-.79h.02s23,5.24,23,5.24h0s0,0,0,0h0s15.84,9.04,15.84,9.04h0s12.19,10.27,12.19,10.27h0ZM57.13,12.4l13.12,4.71-10.15,3.35-2.96-8.06h0Zm-.07.14l2.93,7.96-4.32,1.43,1.4-9.39h0Zm30.4-.96l22.68,5.16-25.96,5.2,3.28-10.37h0Zm-16.85,5.54l16.72-5.51-3.28,10.35-13.44-4.83h0Zm13.89,4.88l25.83-5.18-1.81,7.32-24.03-2.14h0Zm24.15,2.15l7.94.71-6.14-7.98-1.79,7.27h0Zm8.1.72l1.13.1-6.58-7.18,5.45,7.08h0Zm1.31.12l7.94.71-15.28-8.71,7.34,8.01h0Zm-61.1-12.55l-17.81,14.93,16.39-5.41,1.42-9.52h0Zm-25.71,9.23l.46,8.15,7.13-2.35,17.9-15-25.5,9.21h0Zm86.93,3.45l5.63,6.14,2.37-5.43-8-.71h0Zm-87.04-3.29l-6.24,10.25,6.7-2.21-.46-8.04h0Zm85.71,3.17l6.19,8.04.72-1.66-5.76-6.28-1.15-.1h0Zm-85.13,4.95l.19,3.34,6.69-5.61-6.88,2.27h0Zm91.41,3.17l3.34,1.22-2.63-2.86-.72,1.64h0Zm-98.33-.89l-1.61,2.65,8.61-1.52-.19-3.37-6.8,2.24h0Zm35.34-11.66l6.34,17.24,17.5-15.77-13.55-4.87-10.29,3.4h0Zm63.22,12.76l8.56,6.95-5.27-5.75-3.29-1.2h0Zm9.73,8.06l6.19,6.76.75-1.12-6.94-5.64h0ZM55.63,22.06l-4.39,29.48,15.13-13.63-6.36-17.29-4.38,1.45h0Zm-23.7,11.35l19.19,18.15,4.38-29.47-16.62,5.48-6.96,5.83h0Zm-.02.14l1.1,19.57,18.02-1.48-19.12-18.08h0Zm19.39,18.08l20.68,1.54-5.57-15.16-15.11,13.62h0Zm-28.21-16.62l-11.92,19.58,20.5-21.09-8.58,1.51h0Zm8.7-1.47l-20.79,21.39,21.89-1.8-1.1-19.58h0Zm76.82-9.28l-7.63,30.92,21.98-22.04-6.28-8.16-8.06-.72h0Zm-24.43-2.18l16.67,33.12,7.64-30.96-24.31-2.17h0Zm-12.06,31.09l28.65,2.13-16.71-33.2-17.55,15.82,5.61,15.25h0Zm51-19.89l4.45,32.36,11.64-17.41-6.75-7.37-9.34-7.59h0Zm-22.14,22.07l26.48,10.37-4.46-32.45-22.02,22.08h0Zm-49.61-3.6l27.15,19.18-6.49-17.64-20.66-1.54h0Zm20.79,1.55l6.51,17.7,22.03-15.58-28.54-2.12h0Zm-20.78-1.4l13.54,20.7,13.56-1.55-27.1-19.15h0ZM.16,74l11.28.7-.65-19.48L.16,74H.16Zm32.86-20.76l1.28,22.75,16.75-24.23-18.03,1.48h0Zm-22.03,1.81l23.19,20.97-1.28-22.77-21.91,1.8h0Zm40.17-3.26l-16.79,24.3,30.42-3.47-13.63-20.83h0Zm-39.6,22.91l22.52,1.39-23.17-20.95.65,19.56h0Zm89.45-19.2l13.83,22.16,12.58-11.83-26.4-10.34h0Zm-36.02,17.21l4.36,6.67,9.11-8.21-13.47,1.54h0Zm49.92,5.06l6.06,9.71,6.44-21.47-12.5,11.76h0Zm-45.49,1.72l16.43,25.12-7.25-33.39-9.19,8.27h0Zm9.29-8.36l7.28,33.54,14.78-49.14-22.06,15.59h0Zm22.18-15.6l-14.79,49.18,28.66-26.96-13.87-22.23h0Zm-14.79,49.34l28.14,5.02,6.68-22.26-6.1-9.78-28.72,27.01h0Zm-51.8-28.65l-2.8,37.28,37.77-34.02-4.41-6.74-30.56,3.48h0Zm-22.08,18.37l19.16,18.92,2.8-37.28-22.62-1.39.66,19.76h0Zm57.11-15.02l-37.71,33.97,54.26-8.68-16.55-25.29h0Zm51.72,8.05l16.33,26.18-9.87-47.73-6.47,21.56h0Zm-6.69,22.3l23.03,4.11-16.38-26.26-6.64,22.15h0Zm-82.79,3.76l35.8,30.19,18.51-38.88-54.31,8.69Z"/>
    <path class="cls-4" d="m51.84,51.69c0-.37-.3-.67-.67-.67s-.67.3-.67.67.3.67.67.67.67-.3.67-.67Z"/>
    <path class="cls-4" d="m111.08,16.75c0-.37-.3-.67-.67-.67s-.67.3-.67.67.3.67.67.67.67-.3.67-.67Z"/>
    <path class="cls-4" d="m88.09,11.51c0-.37-.3-.67-.67-.67s-.67.3-.67.67.3.67.67.67.67-.3.67-.67Z"/>
    <path class="cls-4" d="m11.52,55.01c0-.37-.3-.67-.67-.67s-.67.3-.67.67.3.67.67.67.67-.3.67-.67Z"/>
    <path class="cls-4" d="m68.06,143.96c0-.37-.3-.67-.67-.67s-.67.3-.67.67.3.67.67.67.67-.3.67-.67Z"/>
    <path class="cls-4" d="m32.11,113.63c0-.37-.3-.67-.67-.67s-.67.3-.67.67.3.67.67.67.67-.3.67-.67Z"/>
    <path class="cls-4" d="m32.11,113.63c0-.37-.3-.67-.67-.67s-.67.3-.67.67.3.67.67.67.67-.3.67-.67Z"/>
    <path class="cls-4" d="m34.92,76.16c0-.37-.3-.67-.67-.67s-.67.3-.67.67.3.67.67.67.67-.3.67-.67Z"/>
    <path class="cls-4" d="m32.11,113.63c0-.37-.3-.67-.67-.67s-.67.3-.67.67.3.67.67.67.67-.3.67-.67Z"/>
    <path class="cls-4" d="m68.06,143.96c0-.37-.3-.67-.67-.67s-.67.3-.67.67.3.67.67.67.67-.3.67-.67Z"/>
    <path class="cls-4" d="m68.06,143.96c0-.37-.3-.67-.67-.67s-.67.3-.67.67.3.67.67.67.67-.3.67-.67Z"/>
    <path class="cls-4" d="m86.66,104.9c0-.37-.3-.67-.67-.67s-.67.3-.67.67.3.67.67.67.67-.3.67-.67Z"/>
    <path class="cls-4" d="m32.11,113.63c0-.37-.3-.67-.67-.67s-.67.3-.67.67.3.67.67.67.67-.3.67-.67Z"/>
    <path class="cls-4" d="m79.32,71.1c0-.37-.3-.67-.67-.67s-.67.3-.67.67.3.67.67.67.67-.3.67-.67Z"/>
    <path class="cls-4" d="m34.92,76.16c0-.37-.3-.67-.67-.67s-.67.3-.67.67.3.67.67.67.67-.3.67-.67Z"/>
    <path class="cls-4" d="m11.52,55.01c0-.37-.3-.67-.67-.67s-.67.3-.67.67.3.67.67.67.67-.3.67-.67Z"/>
    <path class="cls-4" d="m11.52,55.01c0-.37-.3-.67-.67-.67s-.67.3-.67.67.3.67.67.67.67-.3.67-.67Z"/>
    <path class="cls-4" d="m51.84,51.69c0-.37-.3-.67-.67-.67s-.67.3-.67.67.3.67.67.67.67-.3.67-.67Z"/>
    <path class="cls-4" d="m34.92,76.16c0-.37-.3-.67-.67-.67s-.67.3-.67.67.3.67.67.67.67-.3.67-.67Z"/>
    <path class="cls-4" d="m32.52,33.41c0-.37-.3-.67-.67-.67s-.67.3-.67.67.3.67.67.67.67-.3.67-.67Z"/>
    <path class="cls-4" d="m11.52,55.01c0-.37-.3-.67-.67-.67s-.67.3-.67.67.3.67.67.67.67-.3.67-.67Z"/>
    <path class="cls-4" d="m31.85,21.64c0-.37-.3-.67-.67-.67s-.67.3-.67.67.3.67.67.67.67-.3.67-.67Z"/>
    <path class="cls-4" d="m32.52,33.41c0-.37-.3-.67-.67-.67s-.67.3-.67.67.3.67.67.67.67-.3.67-.67Z"/>
    <path class="cls-4" d="m31.85,21.64c0-.37-.3-.67-.67-.67s-.67.3-.67.67.3.67.67.67.67-.3.67-.67Z"/>
    <path class="cls-4" d="m57.7,12.3c0-.37-.3-.67-.67-.67s-.67.3-.67.67.3.67.67.67.67-.3.67-.67Z"/>
    <path class="cls-4" d="m32.52,33.41c0-.37-.3-.67-.67-.67s-.67.3-.67.67.3.67.67.67.67-.3.67-.67Z"/>
    <path class="cls-4" d="m51.84,51.69c0-.37-.3-.67-.67-.67s-.67.3-.67.67.3.67.67.67.67-.3.67-.67Z"/>
    <path class="cls-4" d="m86.66,104.9c0-.37-.3-.67-.67-.67s-.67.3-.67.67.3.67.67.67.67-.3.67-.67Z"/>
    <path class="cls-4" d="m138.13,113.83c-.11-.23-.34-.4-.61-.4-.37,0-.67.3-.67.67s.3.67.67.67h.01c.2-.32.4-.63.6-.95Z"/>
    <path class="cls-4" d="m138.13,113.83c-.11-.23-.34-.4-.61-.4-.37,0-.67.3-.67.67s.3.67.67.67h.01c.2-.32.4-.63.6-.95Z"/>
    <path class="cls-4" d="m128.2,65.82c0-.37-.3-.67-.67-.67s-.67.3-.67.67.3.67.67.67.67-.3.67-.67Z"/>
    <path class="cls-4" d="m86.66,104.9c0-.37-.3-.67-.67-.67s-.67.3-.67.67.3.67.67.67.67-.3.67-.67Z"/>
    <path class="cls-4" d="m138.13,113.83c-.11-.23-.34-.4-.61-.4-.37,0-.67.3-.67.67s.3.67.67.67h.01c.2-.32.4-.63.6-.95Z"/>
    <path class="cls-4" d="m101.55,55.39c0-.37-.3-.67-.67-.67s-.67.3-.67.67.3.67.67.67.67-.3.67-.67Z"/>
    <path class="cls-4" d="m79.32,71.1c0-.37-.3-.67-.67-.67s-.67.3-.67.67.3.67.67.67.67-.3.67-.67Z"/>
    <path class="cls-4" d="m86.66,104.9c0-.37-.3-.67-.67-.67s-.67.3-.67.67.3.67.67.67.67-.3.67-.67Z"/>
    <path class="cls-4" d="m101.55,55.39c0-.37-.3-.67-.67-.67s-.67.3-.67.67.3.67.67.67.67-.3.67-.67Z"/>
    <path class="cls-4" d="m51.84,51.69c0-.37-.3-.67-.67-.67s-.67.3-.67.67.3.67.67.67.67-.3.67-.67Z"/>
    <path class="cls-4" d="m79.32,71.1c0-.37-.3-.67-.67-.67s-.67.3-.67.67.3.67.67.67.67-.3.67-.67Z"/>
    <path class="cls-4" d="m57.7,12.3c0-.37-.3-.67-.67-.67s-.67.3-.67.67.3.67.67.67.67-.3.67-.67Z"/>
    <path class="cls-4" d="m51.84,51.69c0-.37-.3-.67-.67-.67s-.67.3-.67.67.3.67.67.67.67-.3.67-.67Z"/>
    <path class="cls-4" d="m84.76,22.02c0-.37-.3-.67-.67-.67s-.67.3-.67.67.3.67.67.67.67-.3.67-.67Z"/>
    <path class="cls-4" d="m88.09,11.51c0-.37-.3-.67-.67-.67s-.67.3-.67.67.3.67.67.67.67-.3.67-.67Z"/>
    <path class="cls-4" d="m57.7,12.3c0-.37-.3-.67-.67-.67s-.67.3-.67.67.3.67.67.67.67-.3.67-.67Z"/>
    <path class="cls-4" d="m84.76,22.02c0-.37-.3-.67-.67-.67s-.67.3-.67.67.3.67.67.67.67-.3.67-.67Z"/>
    <path class="cls-4" d="m101.55,55.39c0-.37-.3-.67-.67-.67s-.67.3-.67.67.3.67.67.67.67-.3.67-.67Z"/>
    <path class="cls-4" d="m111.08,16.75c0-.37-.3-.67-.67-.67s-.67.3-.67.67.3.67.67.67.67-.3.67-.67Z"/>
    <path class="cls-4" d="m84.76,22.02c0-.37-.3-.67-.67-.67s-.67.3-.67.67.3.67.67.67.67-.3.67-.67Z"/>
    <path class="cls-4" d="m126.93,25.78c0-.37-.3-.67-.67-.67s-.67.3-.67.67.3.67.67.67.67-.3.67-.67Z"/>
    <path class="cls-4" d="m111.08,16.75c0-.37-.3-.67-.67-.67s-.67.3-.67.67.3.67.67.67.67-.3.67-.67Z"/>
    <path class="cls-4" d="m123.71,33.16c0-.37-.3-.67-.67-.67s-.67.3-.67.67.3.67.67.67.67-.3.67-.67Z"/>
    <path class="cls-4" d="m126.93,25.78c0-.37-.3-.67-.67-.67s-.67.3-.67.67.3.67.67.67.67-.3.67-.67Z"/>
    <path class="cls-4" d="m123.71,33.16c0-.37-.3-.67-.67-.67s-.67.3-.67.67.3.67.67.67.67-.3.67-.67Z"/>
    <path class="cls-4" d="m101.55,55.39c0-.37-.3-.67-.67-.67s-.67.3-.67.67.3.67.67.67.67-.3.67-.67Z"/>
    <path class="cls-4" d="m128.2,65.82c0-.37-.3-.67-.67-.67s-.67.3-.67.67.3.67.67.67.67-.3.67-.67Z"/>
    <path class="cls-4" d="m138.13,113.83c-.11-.23-.34-.4-.61-.4-.37,0-.67.3-.67.67s.3.67.67.67h.01c.2-.32.4-.63.6-.95Z"/>
    <path class="cls-4" d="m123.71,33.16c0-.37-.3-.67-.67-.67s-.67.3-.67.67.3.67.67.67.67-.3.67-.67Z"/>
    <path class="cls-4" d="m128.2,65.82c0-.37-.3-.67-.67-.67s-.67.3-.67.67.3.67.67.67.67-.3.67-.67Z"/>
    <path class="cls-4" d="m128.2,65.82c0-.37-.3-.67-.67-.67s-.67.3-.67.67.3.67.67.67.67-.3.67-.67Z"/>
    <path class="cls-4" d="m138.13,113.83c-.11-.23-.34-.4-.61-.4-.37,0-.67.3-.67.67s.3.67.67.67h.01c.2-.32.4-.63.6-.95Z"/>
    <path class="cls-4" d="m31.94,17.99l6.97.04,5.25-4.81-12.23,4.78h0Zm100.17,9.07c.22.27.45.53.66.81l-9.61-7.37.18,8.71,14.17,5.25c.07.11.14.22.21.33l-14.38-5.32.19,9.09,15.99-.77c.04.08.09.15.13.23l-16.12.77.22,10.74,13.7,3.2,4.97-9.28.12.27-4.86,9.07,8.9,2.08.07.26-9.08-2.12-13.08,24.42,24.06-12.87c.01.08.02.17.03.25l-24.08,12.88,23.95,7.65c-.01.08-.02.16-.04.24l-22.29-7.12,21.84,9.85c-.01.08-.03.16-.04.24l-23.49-10.59,10.29,23.08,12.11-7.62c-.03.11-.06.22-.09.33l-11.93,7.5,4.61,10.34-.15.25-4.67-10.47-18.65,11.73,19.87,4.17c-.05.07-.1.14-.15.21l-19.9-4.17,2.17,22.05-.22.16-2.17-22.06-29.44,34.9-.35.05,29.69-35.21-40.11-19.1,8.73,54.54-.23.03-8.73-54.57-26.07,17.05,33.89,37.62c-.1.01-.19.02-.29.03l-33.8-37.52-6.91,4.52,3.12,27.36c-.08-.04-.17-.07-.25-.11l-3.09-27.11-18.93,12.38c-.06-.06-.12-.11-.17-.16l19.07-12.48-1.58-13.86-18.15,25.69-.17-.17,18.09-25.6-18.07,6.64-1.31,17.63c-.07-.08-.15-.15-.22-.23l1.29-17.31-11.22,4.12c-.04-.07-.08-.14-.12-.21l11.36-4.18,2.2-29.54L1.57,89.88l-.05-.24,22.09-11.12L.03,72.7v-.24s23.53,5.81,23.53,5.81L2.12,56.88c.02-.09.05-.18.07-.27l21.71,21.65,10.67-27.25L2.5,55.42c.02-.08.04-.16.06-.25l31.87-4.38-17.87-11.95-7.59,6.96-5.74,7.06c.06-.2.12-.4.19-.6l4.36-5.37-3.72,3.41c.05-.15.1-.31.16-.47l4.58-4.2,6.31-7.77-3.9-2.61.13-.2,3.92,2.62,15.45-19.02-15.4,10.67c.16-.21.33-.42.49-.63l15.45-10.7h.01s0-.01,0-.01h.01s13.39-5.24,13.39-5.24l.14.05-.02.15-5.53,5.07,10.33.06,3.68-8.06.09-.07,17.05-2.31h.02s.03,0,.03,0l25.86,6.13,1.86-3.44c.03-.05.09-.07.15-.05l24.76,9.84h0s0,0,0,0h.02s9,6.91,9,6.91h0Zm-82.27-8.97l25.03.14-4.52-10.32-16.9,2.29-3.61,7.9h0Zm21.74-9.92l22.3,10.13,2.32-4.29-24.61-5.84h0Zm3.55,10.06l18.25.1-22.72-10.32,4.47,10.22h0Zm21.42-4.38l24.94,5.92-23.16-9.21-1.78,3.29h0Zm-2.43,4.49l27.55,1.71-25.24-5.99-2.31,4.28h0Zm-62.21-.12l4.65,1.95,2.09-1.92-6.74-.04h0Zm-.46.06l.63,6,4.29-3.93-4.92-2.06h0Zm5.35,1.99l9.89,4.15,2.79-6.11-10.48-.06-2.2,2.01h0Zm57.92-1.66l18.34,6.79,9.55-5.06-27.89-1.73h0Zm18.64,6.9l9.74,3.61-.18-8.67-9.56,5.07h0ZM15.45,37.82l1.08.72,15.34-14.06-.64-6.09-15.78,19.43h0Zm59.78-19.36l9.53,21.77,9-21.67-18.52-.1h0Zm18.76.13l-9,21.68,27.79-14.72-18.79-6.96h0Zm-47.09,5.92l37.63,15.79-9.56-21.85-25.24-.14-2.83,6.2h0Zm66.17,1.14l-27.8,14.73,38.01-1.82-.19-9.19-10.03-3.71h0ZM15.3,38l-5.32,6.55,6.37-5.84-1.05-.7h0Zm70.31,2.61l37.91,8.86-.22-10.67-37.69,1.81h0Zm-53.49-16.03l2.71,25.85,11.77-25.79-9.98-4.19-4.5,4.12h0Zm-15.38,14.1l17.87,11.95-2.71-25.86-15.17,13.91h0Zm30.08-13.95l-11.86,25.97,49.41-10.21-37.55-15.76h0Zm-11.58,26.16l22.09,6.63,26.82-16.73-48.91,10.11h0Zm-.09.22l12,12.76,9.91-6.18-21.91-6.57h0Zm22.48,6.5l22.76,6.83,4.22-23.66-26.98,16.83h0Zm66.14-7.84l.57,27.49,13.02-24.31-13.58-3.18h0Zm-38.6-9.02l38.94,36.69-.57-27.72-38.36-8.97h0Zm-4.56,23.75l43.18,12.95-38.94-36.69-4.24,23.73h0Zm-45.81-13.42l-10.61,27.1,22.75-14.2-12.14-12.91h0Zm12.51,12.96l27.85,29.61,5.18-28.99-22.98-6.89-10.05,6.27h0Zm-23.08,14.4l50.62,15.22-27.74-29.5-22.87,14.27h0Zm56.33-13.7l-5.18,28.99,48.45-16.01-43.27-12.98h0Zm-56.32,13.95l16.04,22.68,34.49-7.48-50.52-15.2h0Zm-.2.13l-2.18,29.32,18.18-6.69-16-22.63h0Zm16.41,22.76l8.47,9.4,25.72-16.82-34.19,7.42h0Zm83.81-23.5l-8.39,34.83,18.68-11.75-10.29-23.08h0Zm-48.71,15.85l40.05,19.07,8.46-35.11-48.51,16.04h0Zm-35.17,7.93l1.56,13.69,6.78-4.43-8.34-9.25Z"/>
    <path class="cls-4" d="m32.75,18.1c0,.79-.64,1.43-1.43,1.43s-1.43-.64-1.43-1.43.64-1.43,1.43-1.43,1.43.64,1.43,1.43Z"/>
    <path class="cls-4" d="m45.8,12.87c0,.6-.49,1.08-1.08,1.08s-1.09-.48-1.09-1.08.49-1.08,1.09-1.08,1.08.49,1.08,1.08Z"/>
    <path class="cls-4" d="m117.11,113.16c0,.79-.64,1.43-1.43,1.43s-1.43-.64-1.43-1.43.64-1.43,1.43-1.43,1.43.64,1.43,1.43Z"/>
    <path class="cls-4" d="m117.11,113.16c0,.79-.64,1.43-1.43,1.43s-1.43-.64-1.43-1.43.64-1.43,1.43-1.43,1.43.64,1.43,1.43Z"/>
    <path class="cls-4" d="m125.65,77.71c0,.79-.64,1.43-1.43,1.43s-1.43-.64-1.43-1.43.64-1.43,1.43-1.43,1.43.64,1.43,1.43Z"/>
    <path class="cls-4" d="m117.96,113.16c0,1.26-1.02,2.27-2.27,2.27s-2.27-1.02-2.27-2.27,1.02-2.27,2.27-2.27,2.27,1.02,2.27,2.27Z"/>
    <path class="cls-4" d="m76.66,93.9c0,.79-.64,1.43-1.43,1.43s-1.43-.64-1.43-1.43.64-1.43,1.43-1.43,1.43.64,1.43,1.43Z"/>
    <path class="cls-4" d="m82.7,148.81c.4-.4.96-.65,1.58-.65.41,0,.8.11,1.14.31-.9.13-1.8.24-2.71.34Z"/>
    <path class="cls-4" d="m41.65,101.5c0,.79-.64,1.43-1.43,1.43s-1.43-.64-1.43-1.43.64-1.43,1.43-1.43,1.43.64,1.43,1.43Z"/>
    <path class="cls-4" d="m76.66,93.9c0,.79-.64,1.43-1.43,1.43s-1.43-.64-1.43-1.43.64-1.43,1.43-1.43,1.43.64,1.43,1.43Z"/>
    <path class="cls-4" d="m125.65,77.71c0,.79-.64,1.43-1.43,1.43s-1.43-.64-1.43-1.43.64-1.43,1.43-1.43,1.43.64,1.43,1.43Z"/>
    <path class="cls-4" d="m125.65,77.71c0,.79-.64,1.43-1.43,1.43s-1.43-.64-1.43-1.43.64-1.43,1.43-1.43,1.43.64,1.43,1.43Z"/>
    <path class="cls-4" d="m86.19,40.53c0,.79-.64,1.43-1.43,1.43s-1.43-.64-1.43-1.43.64-1.43,1.43-1.43,1.43.64,1.43,1.43Z"/>
    <path class="cls-4" d="m125.65,77.71c0,.79-.64,1.43-1.43,1.43s-1.43-.64-1.43-1.43.64-1.43,1.43-1.43,1.43.64,1.43,1.43Z"/>
    <path class="cls-4" d="m124.47,20.25c0,.79-.64,1.43-1.43,1.43s-1.43-.64-1.43-1.43.64-1.43,1.43-1.43,1.43.64,1.43,1.43Z"/>
    <path class="cls-4" d="m95.36,18.45c0,.79-.64,1.43-1.43,1.43s-1.43-.64-1.43-1.43.64-1.43,1.43-1.43,1.43.64,1.43,1.43Z"/>
    <path class="cls-4" d="m99.7,10.41c0,.79-.64,1.43-1.43,1.43s-1.43-.64-1.43-1.43.64-1.43,1.43-1.43,1.43.64,1.43,1.43Z"/>
    <path class="cls-4" d="m113.97,25.54c0,.47-.38.86-.86.86s-.86-.39-.86-.86.39-.86.86-.86.86.38.86.86Z"/>
    <path class="cls-4" d="m124.08,29.31c0,.46-.37.83-.83.83s-.83-.37-.83-.83.37-.83.83-.83.83.37.83.83Z"/>
    <path class="cls-4" d="m124.35,49.59c0,.46-.37.83-.83.83s-.83-.37-.83-.83.37-.83.83-.83.83.37.83.83Z"/>
    <path class="cls-4" d="m124.27,38.59c0,.46-.37.83-.83.83s-.83-.37-.83-.83.37-.83.83-.83.83.37.83.83Z"/>
    <path class="cls-4" d="m138.26,52.89c0,.46-.37.83-.83.83s-.83-.37-.83-.83.37-.83.83-.83.83.37.83.83Z"/>
    <path class="cls-4" d="m148.65,65.22c-.27-.14-.46-.42-.46-.74,0-.25.11-.47.28-.62.07.45.12.9.18,1.36Z"/>
    <path class="cls-4" d="m135.6,101.08c0,.46-.37.83-.83.83s-.83-.37-.83-.83.37-.83.83-.83.83.37.83.83Z"/>
    <circle class="cls-2" cx="9.11" cy="45.56" r=".83"/>
    <circle class="cls-2" cx="16.48" cy="38.78" r=".83"/>
    <path class="cls-4" d="m47.57,24.58c0,.46-.37.83-.83.83s-.83-.37-.83-.83.37-.83.83-.83.83.37.83.83Z"/>
    <path class="cls-4" d="m50.52,18.15c0,.46-.37.83-.83.83s-.83-.37-.83-.83.37-.83.83-.83.83.37.83.83Z"/>
    <path class="cls-4" d="m37.45,20.51c0,.46-.37.83-.83.83s-.83-.37-.83-.83.37-.83.83-.83.83.37.83.83Z"/>
    <path class="cls-4" d="m32.93,24.64c0,.46-.37.83-.83.83s-.83-.37-.83-.83.37-.83.83-.83.83.37.83.83Z"/>
    <path class="cls-4" d="m40,18.05c0,.46-.37.83-.83.83s-.83-.37-.83-.83.37-.83.83-.83.83.37.83.83Z"/>
    <path class="cls-4" d="m75.86,18.25c0,.46-.37.83-.83.83s-.83-.37-.83-.83.37-.83.83-.83.83.37.83.83Z"/>
    <path class="cls-4" d="m58.08,57.75c0,.46-.37.83-.83.83s-.83-.37-.83-.83.37-.83.83-.83.83.37.83.83Z"/>
    <path class="cls-4" d="m47.96,64.03c0,.46-.37.83-.83.83s-.83-.37-.83-.83.37-.83.83-.83.83.37.83.83Z"/>
    <path class="cls-4" d="m81.27,64.53c0,.46-.37.83-.83.83s-.83-.37-.83-.83.37-.83.83-.83.83.37.83.83Z"/>
    <path class="cls-4" d="m97.19,13.93c0,.46-.37.83-.83.83s-.83-.37-.83-.83.37-.83.83-.83.83.37.83.83Z"/>
    <path class="cls-4" d="m124.47,20.25c0,.79-.64,1.43-1.43,1.43s-1.43-.64-1.43-1.43.64-1.43,1.43-1.43,1.43.64,1.43,1.43Z"/>
    <path class="cls-4" d="m71.86,7.77c0,.79-.64,1.43-1.43,1.43s-1.43-.64-1.43-1.43.64-1.43,1.43-1.43,1.43.64,1.43,1.43Z"/>
    <path class="cls-4" d="m95.36,18.45c0,.79-.64,1.43-1.43,1.43s-1.43-.64-1.43-1.43.64-1.43,1.43-1.43,1.43.64,1.43,1.43Z"/>
    <path class="cls-4" d="m125.2,20.25c0,1.19-.97,2.16-2.16,2.16s-2.16-.97-2.16-2.16.97-2.16,2.16-2.16c.11,0,.21,0,.31.02.6.52,1.2,1.05,1.78,1.58.05.18.07.36.07.56Z"/>
    <path class="cls-4" d="m86.19,40.53c0,.79-.64,1.43-1.43,1.43s-1.43-.64-1.43-1.43.64-1.43,1.43-1.43,1.43.64,1.43,1.43Z"/>
    <path class="cls-4" d="m129.2,77.71c0,2.75-2.23,4.98-4.98,4.98s-4.98-2.23-4.98-4.98,2.23-4.98,4.98-4.98,4.98,2.23,4.98,4.98Z"/>
    <path class="cls-4" d="m36.18,50.87c0,.79-.64,1.43-1.43,1.43s-1.43-.64-1.43-1.43.64-1.43,1.43-1.43,1.43.64,1.43,1.43Z"/>
    <path class="cls-4" d="m76.66,93.9c0,.79-.64,1.43-1.43,1.43s-1.43-.64-1.43-1.43.64-1.43,1.43-1.43,1.43.64,1.43,1.43Z"/>
    <path class="cls-4" d="m86.19,40.53c0,.79-.64,1.43-1.43,1.43s-1.43-.64-1.43-1.43.64-1.43,1.43-1.43,1.43.64,1.43,1.43Z"/>
    <path class="cls-4" d="m25.37,78.48c0,.79-.64,1.43-1.43,1.43s-1.43-.64-1.43-1.43.64-1.43,1.43-1.43,1.43.64,1.43,1.43Z"/>
    <path class="cls-4" d="m41.65,101.5c0,.79-.64,1.43-1.43,1.43s-1.43-.64-1.43-1.43.64-1.43,1.43-1.43,1.43.64,1.43,1.43Z"/>
    <path class="cls-4" d="m79.07,93.9c0,2.12-1.72,3.83-3.83,3.83s-3.83-1.72-3.83-3.83,1.72-3.83,3.83-3.83,3.83,1.72,3.83,3.83Z"/>
    <path class="cls-4" d="m25.37,78.48c0,.79-.64,1.43-1.43,1.43s-1.43-.64-1.43-1.43.64-1.43,1.43-1.43,1.43.64,1.43,1.43Z"/>
    <circle class="cls-2" cx="40.22" cy="101.5" r="1.95"/>
    <path class="cls-4" d="m20.16,125.63c2.33.03,4.22,1.89,4.28,4.21-1.48-1.35-2.91-2.75-4.28-4.21Z"/>
    <path class="cls-4" d="m25.37,78.48c0,.79-.64,1.43-1.43,1.43s-1.43-.64-1.43-1.43.64-1.43,1.43-1.43,1.43.64,1.43,1.43Z"/>
    <path class="cls-4" d="m27.18,78.48c0,1.79-1.45,3.24-3.24,3.24s-3.24-1.45-3.24-3.24,1.45-3.24,3.24-3.24,3.24,1.45,3.24,3.24Z"/>
    <path class="cls-4" d="m36.18,50.87c0,.79-.64,1.43-1.43,1.43s-1.43-.64-1.43-1.43.64-1.43,1.43-1.43,1.43.64,1.43,1.43Z"/>
    <path class="cls-4" d="m86.19,40.53c0,.79-.64,1.43-1.43,1.43s-1.43-.64-1.43-1.43.64-1.43,1.43-1.43,1.43.64,1.43,1.43Z"/>
    <path class="cls-4" d="m95.89,18.45c0,1.08-.87,1.95-1.95,1.95s-1.95-.87-1.95-1.95.87-1.95,1.95-1.95,1.95.88,1.95,1.95Z"/>
    <path class="cls-4" d="m32.75,18.1c0,.79-.64,1.43-1.43,1.43s-1.43-.64-1.43-1.43.64-1.43,1.43-1.43,1.43.64,1.43,1.43Z"/>
    <path class="cls-4" d="m36.18,50.87c0,.79-.64,1.43-1.43,1.43s-1.43-.64-1.43-1.43.64-1.43,1.43-1.43,1.43.64,1.43,1.43Z"/>
    <path class="cls-4" d="m32.75,18.1c0,.79-.64,1.43-1.43,1.43s-1.43-.64-1.43-1.43.64-1.43,1.43-1.43,1.43.64,1.43,1.43Z"/>
    <path class="cls-4" d="m36.18,50.87c0,.79-.64,1.43-1.43,1.43s-1.43-.64-1.43-1.43.64-1.43,1.43-1.43,1.43.64,1.43,1.43Z"/>
    <path class="cls-4" d="m54.8,10.08c0,.79-.64,1.43-1.43,1.43s-1.43-.64-1.43-1.43.64-1.43,1.43-1.43,1.43.64,1.43,1.43Z"/>
    <path class="cls-4" d="m87.36,40.53c0,1.43-1.16,2.6-2.6,2.6s-2.6-1.16-2.6-2.6,1.16-2.6,2.6-2.6,2.6,1.16,2.6,2.6Z"/>
    <path class="cls-4" d="m71.86,7.77c0,.79-.64,1.43-1.43,1.43s-1.43-.64-1.43-1.43.64-1.43,1.43-1.43,1.43.64,1.43,1.43Z"/>
    <path class="cls-4" d="m33.37,18.1c0,1.13-.92,2.05-2.05,2.05s-2.05-.92-2.05-2.05.92-2.05,2.05-2.05,2.05.92,2.05,2.05Z"/>
  </g>
</svg>